<?xml version="1.0" encoding="UTF-8"?>
<svg id="Layer_2" data-name="Layer 2" xmlns="http://www.w3.org/2000/svg" viewBox="0 0 1047.62 987.92">
  <defs>
    <style>
      .cls-1 {
        fill: #0334a9;
      }

      .cls-2 {
        fill: #36066c;
      }

      .cls-3 {
        fill: #c826b1;
      }

      .cls-4 {
        fill: #a20ca2;
      }

      .cls-5 {
        fill: #6a647e;
      }

      .cls-6 {
        fill: #0485b5;
      }

      .cls-7 {
        fill: #036b9c;
      }

      .cls-8 {
        fill: #3a0b8f;
      }

      .cls-9 {
        fill: #83018f;
      }

      .cls-10 {
        fill: #0258b6;
      }

      .cls-11 {
        fill: #69007e;
      }

      .cls-12 {
        fill: #02247b;
      }

      .cls-13 {
        fill: #e841c5;
      }

      .cls-14 {
        fill: #550078;
      }

      .cls-15 {
        fill: #2830bb;
      }

      .cls-16 {
        fill: #5f2cc4;
      }
    </style>
  </defs>
  <g id="Layer_1-2" data-name="Layer 1">
    <g>
      <polygon class="cls-8" points="541.68 0 541.68 1 502.72 0 541.68 0"/>
      <path class="cls-5" d="M493.73,0c-1.36,1.17-3.08,1.97-3,4-3.27-.03-7.02-.96-8.99-1,2.04-.53,4.61-.39,4-3h7.99Z"/>
      <path class="cls-5" d="M858.38,202.79l-1-2c.22.52.64,1.1,1,2Z"/>
      <path class="cls-5" d="M861.38,207.79l-2-2c.05.13,1.6.58,2,2Z"/>
      <path class="cls-5" d="M857.38,199.8l-1-1c.04.08.68.3,1,1Z"/>
      <path class="cls-5" d="M856.38,197.8l-1-1c.09.18.71.45,1,1Z"/>
      <path class="cls-5" d="M855.38,195.8l-1-1c.1.18.71.45,1,1Z"/>
      <path class="cls-2" d="M714.52,983.01v.99c-1.87-.85-4.61,1.01-5.49,1.01h-32.97c-1.34,0-5.09-2.07-7.49-1.01v-.99s45.95,0,45.95,0Z"/>
      <g>
        <path class="cls-5" d="M550.67,0c.87,1.92,2.61,2.63,4.56,2.94,7.55,1.18,18.25-.8,25.81.07,2.7.31,7.02,3.01,10.33,3.75,5.09,1.13,11.97-.43,16.25,4.23-23.01-3.38-41.33-6.05-64.94-6.99l-1-3v-1h8.99Z"/>
        <path class="cls-5" d="M886.35,292.7c1.21,1,4,6.57,4,7.49v16.98c0,.93,2.44,4.5,2.76,6.23.67,3.59-.22,7.24.3,10.69,1.04,6.92,11.29,13.95,15.94,19.04,15.61,17.11,32.67,35.23,45.94,54.45.8.14,1.91-.4,2.75.22,9.97,14.39,21.72,27.51,31.19,42.26,21.74,33.88,42.14,76.87,49.22,116.62.6,3.37,3.22,6.26,3.7,9.29.76,4.8-.36,10.7.18,15.8s3.36,9.46,3.87,14.11c4.7,42.48-2.68,105.78-16.47,145.37-1.95,5.61-5.33,16.15-7.78,21.19-1.46,3-5.09,6.57-6.5,9.49-1.99,4.11-4.04,12.81-6.18,16.62-.66,1.17-2.52.33-2.89.73-.31.34-1.91,5.51-3.35,8.19-4.42,8.22-12.47,25.21-19.78,29.67-3.78,7.06-8.94,14.17-13.99,20.26-66.5,80.06-152.04,115.99-252.2,129.63-8.51,1.16-40.54,1.16-49.05,0-2.94-.4-5.48-2.48-9.06-2.93-5.1-.64-10.75.47-15.79-.2-3.89-.52-8.16-3.07-12.33-3.65s-8.68.72-12.23-1.26c2.61.36,8.05.53,9.99-1,18.65,3.03,32.09,3.71,50.95,4,112.27,1.72,210.74-37.47,284.7-122.41,4.91-5.64,13.73-19.22,19.01-22.45,6.62-12.36,14.23-24.37,20.98-36.96,13.61-25.38,24.06-47.82,31.55-75.84l2.42-18.06c1.22-3.31,1.29-3.22,2-6.99,5.18-27.78,6.5-57.76,4-85.91-.09-.98.09-2.01,0-3-.28-2.86-.33-6.56-2-8.99-.08-.99.09-2.01,0-3-.17-1.76-.99-1.89-1-2-.35-3.5-.01-5.15-1-8.99-.24-.95.38-2.36-1-3,.02-.33-.01-.67,0-1,1.14-29.88-24.48-83.61-39.14-110.21-12.93-23.46-29.71-43.79-44.78-65.62-1.06-.19-2.08-.41-3-1-.24-.34-.67-.71-1-1-.09-2.85-2.41-3.52-4-4.99-.33-.31-.71-.66-1-1,.07-.92-.69-1.42-1-2-4.76-8.85-40.35-45.95-48.95-51.95-.66-.46-1.04-2.37-3-2-.23-3-1.36-10.38-2-13.26-.17-.77-1.32-1.17-1.99-1.72,2.07-2.84,0-5.98,0-7.49v-15.98c0-.91-2.5-10.25-3-12.49ZM714.52,983.01h-45.96v.99c2.4-1.06,6.16,1.01,7.49,1.01h32.97c.88,0,3.62-1.86,5.49-1.01v-.99Z"/>
        <path class="cls-5" d="M9.19,577.42c-.24,2.56-1.43,8.54-2.07,11.23-5.12,21.36-5.05,42.82-3.92,65.69,1.38,28.04,5.72,48.23,12.99,74.92,1.89,6.96,2.81,14.74,6.99,20.98,6.55,23.09,16.36,36.51,24.98,56.94,3.73,1.85,4.49,5.72,7,9.48,4.77,7.15,9.09,13.02,12.98,20.49,5.55,2.92,4.99,5.88,7.95,10.26,1.74,2.58,2.26.24,4.03,5.72,3.69,2.03,2.72,3.01,5.49,6.01,7.41,8.02,15.64,15.4,23.49,22.97,27.18,26.21,71.12,61.21,106.9,71.93,9.19,2.75,19.65,8.35,29.54,10.92,4.4,1.14,8.77.76,12.87,2.12,5.38,1.78,6.15,4,13.54,3.94,1.33-.01,2.67-.03,4,0-.57,2.65,1.32,1.99,2.98,2.46,15.83,4.44,25.77,4.03,41.47,5.54,5.33.51,11.23,2.64,16.95,3.03,27.15,1.88,66.4-2.39,92.94-8.05.69-.15.46-.97.51-.98,16.33-3.51,33.26-5.15,48.98-10.46,10.02-3.39,23.85-12.01,33.94-12.51,4.74-.23,9.32.51,13.99,1,1.29.13,2.74-.18,4,0,2.93,4.68,5.4,3,9.26,4.05.82.22.82,1.63,1.5,1.86,22.9,7.86,50.18,14.52,74.15,19.06l1,3c-24.71-5.12-49.03-12.24-73.18-19.23-3.85-1.11-11.81-6.38-15.66-7.31-3.7-.89-18.55-1-21.8.32-11.55,4.69-18.57,8.96-31.45,12.51-62.09,17.12-134.95,26.53-198.65,10.28-6.35-1.62-17-6.32-22.65-7.32-20.69-3.68-36.82-10.74-55.51-19.41-28.96-13.42-60.4-35.39-84.14-57.7-4.86-4.57-32.8-31.64-34.01-35-.4-1.11-.2-2.28-.44-3.01-4.43-2.43-9.38-10.98-11.99-15.98-5.03-2.65-17.13-23.22-19.98-29.97-.38-.19-1,.46-2.07-.64-1.67-1.73-4.53-8.98-6.06-11.69-5.64-9.96-9.97-18.05-14.37-28.6-.96-2.29-4.14-8.23-4.28-8.71-.63-2.15.03-4.86-.62-7.41s-6.52-12.89-7.36-16.58.56-8.22-.42-11.57c-.46-1.57-2.75-2.72-3.35-4.64-2.86-9.07-3.5-19.13-4.56-28.41-.6-5.29-3.35-10.29-3.88-15.1-2.67-24.21-.6-62.24,3.88-86.04,1.06-5.64-.5-12.07,4.12-17.36-.2,2.3.22,4.7,0,6.99Z"/>
        <path class="cls-5" d="M204,170.83c-.07.31.07.68,0,1-3-.18-3.05,2.82-4,4.99-.25.57-.66,1.23-1,2-6.01,6.35-11.32,15-14.99,22.98-.3.65-.68,1.32-1,2-1.19.19-.73,1.61-1,2-8.17,11.93-11.8,18.76-17.98,31.97-.31.66-.68,1.31-1,2-2.4,5.19-3.87,8.82-5.99,13.99-.24.59-.68,1.22-1,2-3.49,8.63-5.56,12.51-7.99,21.98-.34,1.32-.66,2.7-1,4-4.19,6.61-5.83,14.55-7.99,21.98-3.69,12.65-7.59,26.08-9.99,38.96-.11.62.11,1.38,0,2-.06.32.05.67,0,1-1.34,8.12-4.01,19.03-2.98,27.49.12,1,.78,1.14.98,1.48.22.39.68.68,1,1-10.41,10.15-20.83,21.81-31.01,32.45-5.18,5.41-11.71,14.93-16.94,18.5-4.2,9.16-10.16,14.53-15.8,22.66-12.75,18.41-23.06,35.9-32.15,56.26-7.48,16.74-14.52,30.68-16.98,48.95l-5.99,14.98c.17-2.69-.4-5.66.21-8.29s3.3-3.77,3.77-6.22c.62-3.27-.55-7.29.23-10.76.5-2.19,2.58-3.66,3.33-5.66,4.97-13.16,9.69-26.14,15.21-38.73,6.84-15.58,35.54-64.58,48.18-73.2,4.77-10.39,17.3-22.11,25.6-30.84,5.4-5.69,18.45-14.83,19.38-22.58s-.81-17.1-.01-24.98c1.94-19.04,10.45-37.65,15.51-55.42,11.75-41.26,30.46-81.33,57.01-116.82,1.77-2.37,4.03-5.34,6.39-7.1-.14.59.14,1.41,0,2Z"/>
        <path class="cls-5" d="M886.35,291.7c-6.1-3.92-4.33-11.43-5.25-17.22-2.6-16.27-8.81-31.74-15.22-46.72-1.14-2.67-1.25-6.01-2.5-8.99-.36-.85-.33-1.11-1-2-.08-.31.07-.68,0-1-.57-2.67-.57-4.9-1-6.99.51,4.07,3.38,6.93,4.51,9.97,9.11,24.57,14.9,47.49,20.46,72.94Z"/>
        <path class="cls-5" d="M610.61,10.99c14.64,1.83,32.35,7.04,45.94,12.5,2.82,1.13,6.31,3.41,6.71,3.51,9.88,2.4,11.41,3.25,19.99,7.95,1.79.98,4.41.67,5.28,3.01-25.09-9.11-48.01-19.06-74.79-24.66-1.77-.37-3.72.45-3.13-2.31Z"/>
        <path class="cls-5" d="M405.81,17.98c.58,2.69-1.37,1.92-2.96,2.48-4.98,1.75-12.55,5.75-17.02,6.51-.14-2.64,1.46-2.53,3.2-3.3,6.61-2.95,9.38-4.35,16.79-5.69Z"/>
        <path class="cls-2" d="M628.6,978.01c-1.94,1.53-7.38,1.36-9.99,1-.33-.04-.68.07-1,0l-1-3c3.94.75,8.03,1.35,11.99,2Z"/>
        <path class="cls-5" d="M794.44,112.89c-4.86-4.33-9.26-7.89-13.99-12.99,5.09-.67,5.71,4.82,7.55,6.93,1.58,1.81,6.41,1.83,6.43,6.05Z"/>
        <path class="cls-5" d="M779.45,97.9c-3.14-.66-4.12-3.72-5.99-5.99,2.21,2.12,3.88,3.72,5.99,5.99Z"/>
        <path class="cls-5" d="M796.44,115.88l-1-2c.94.83.91,1.93,1,2Z"/>
        <path class="cls-2" d="M527.69,951.04c-4.67-.48-9.25-1.23-13.99-1,.01-1.46.57-2.56,2-3,3.5,1.29,9.15.74,11.99,4Z"/>
        <path class="cls-5" d="M646.58,584.41c.14,1.37.27,4.86,0,5.99-1.28,5.45-4.88,9.25-5,16.98-7.91,12.66-11.58,27.54-17.98,40.96-3.41,7.15-16.58,32.15-21.53,36.94-.99.95-2.84.79-3.22,1.23-.58.69-.09,2.69-.76,3.71-4.89,7.51-29.74,25.52-37.82,29.11-5.58,2.47-14.83,7.44-19.6,8.92-1.94.6-3.93,1.09-5.99,1-18.41-7.33-37.85-12.33-53.95-24.97,7.88,1.95,14.69,6.95,22.06,10.4,6.94,3.25,15.79,6.12,22.65,9.28,2.18,1,1.17,3.43,6.73,3.37,10.52-.11,11.79-4.58,19.77-8.29,1.62-.76,3.63-.49,4.91-1.08,29.43-13.59,44.27-32.76,59.18-60.7,7.22-13.53,12.46-25.81,16.76-40.18.63-2.12,5.43-8.02,6.57-11.41,2.45-7.27,4.44-19.56,5.2-27.26.64,1.07,1.9,5.05,2,5.99Z"/>
        <path class="cls-5" d="M652.57,470.52c6.59,20.86,7.93,42.33,4,63.94-1.29,7.08-4.2,9.22-2,17.98-.38.22-.71.89-1,1-.55.22-1.35-.53-2.01.68-1.83,3.35-1.27,10.92-2.22,14.56-.2.76-2.84,6.44-4.76,5.74.58-3.39,3.16-5.37,3.77-8.72.51-2.85-.14-5.78.47-8.53,4.18-18.85,9.16-36.48,7.8-56.22-.98-14.18-7.62-27.24-11.59-40.36-.72-2.37,0-4.9-.96-7.04-3.85-8.62-24.47-27.62-32.78-32.16-13.59-7.42-42.33-12.64-57.62-12.81,1.04-1.66,3.79-1,5.48-1.02,45.1-.54,79.73,19.61,93.43,62.95Z"/>
        <g>
          <path class="cls-2" d="M502.72,0l38.96,1,1,3c-3.88-.16-9.52-1-12.49-1h-24.98c-3.98,0-9.8,1.04-14.49,1-.08-2.03,1.64-2.83,3-4h8.99Z"/>
          <path class="cls-16" d="M481.74,3c1.97.04,5.72.97,8.99,1,4.68.04,10.51-1,14.49-1h24.98c2.97,0,8.61.84,12.49,1,23.61.95,41.93,3.61,64.94,6.99.95.14,2.04-.12,3,0-.59,2.76,1.36,1.94,3.13,2.31,26.79,5.6,49.7,15.55,74.79,24.66.3.11.71-.11,1,0-.64,1.26,3.11,3.46,3.85,3.87,17.67,9.84,34.67,18.32,52.1,29.1.51.31,1.25.53,2,1,3.22,3.56,7.68,7.95,11.99,9.99.34.33.66.67,1,1,2.95,2.84,7.94,7.29,11.99,7.99.35.31.66.67,1,1,1.88,2.27,2.86,5.34,5.99,5.99.42.45.58,1.54,1,2,4.73,5.1,9.12,8.66,13.99,12.99.35.31.64.69,1,1l1,2c6.22,4.99,13.45,12.03,19.01,18.46,14.69,16.99,28.2,40.67,38.94,60.47l1,1c.14.26-.14.74,0,1l1,1c.14.26-.13.73,0,1l1,1c.12.27-.12.72,0,1l1,2c.41,1.01.64,2,1,3l2,2c.08.3-.07.67,0,1,.42,2.1.43,4.33,1,6.99h-1c-.58-.42-1.37-.63-2-1-4.68-11.06-10.4-18.2-15.98-27.97-14.99-26.21-29.25-50.27-51.41-71.97-4.34-1.72-20.64-21.2-22.83-20.81-1.11.2-1.85,2.43-3.68,1.87.04-6.63-3.89-2.76-6.4-3.22-1.46-.27-2.85-3.82-5.6-2.77-1.32,1.17,4.6,6.59,4.98,7.5,1.13,2.69-3.88.3-4.85,3.12-1.55,4.48,1.8,4.58,1.88,4.88.88,3.1-1.7,2.42-2.53,3.43-1.77,2.17,2.57,3.04,2.37,5.37-.22,2.52-9.7,11.35-11.28,15.72-.43,1.18-2.65,10.6-2.63,11.46.05,2.16,1.82,3.51,2.13,5.91.49,3.82-1.14,7.32-1.15,11.03-.02,9.38,2.34,21.52,2.89,30.97.19,3.32-.95,9.74-.76,12.93.16,2.89,3.66,6.08,3.95,9.13s-1.75,6.47-1.7,9.11c.09,4.81,2.44,12.55,2.75,17.74.36,6.03-1.45,13.97-1.12,20.02.14,2.72,2.84,4.95,2.88,7.17.03,1.86-2.35,3.15-2.62,5.01-.23,1.56,1.02,3.21.69,4.6-.3,1.26-2.33,2.07-2.72,3.41-.57,1.96,1.08,4.09.71,6.52-.29,1.89-2.49,3.9-2.8,5.29-.68,2.97,4.59-.66,2.77,4.76-.69,2.04-3.7,3.24-4.34,4.73-.97,2.23.72,3.65.6,5.33-.05.7-1.67.69-2.05,1.32-2.28,3.76.74,5.44.79,7.98.03,1.53-2.09,2.69-1.81,5.71.39,4.2,5.85,5.52,4.05,12.93-.33,1.37-4.26,1.03-4.9,3.33-.3,1.08.7,2.81.43,4.38-1.15,6.76-2.42,13.58-3.63,20.35-.29,1.62-1.95,2.9-1.93,4.07.02,1.39,1.92,2.44,1.83,3.83s-2.06,3.15-2.39,4.64c-.74,3.3-3.22,15.98-3.33,18.45-.05,1.2,1.16,2.79.85,3.95-.46,1.75-3.42.97-3.97,2.3-2.31,5.5-3.84,16.18-6.24,22.51-5.02,13.26-13.15,26.75-17.45,39.49-2.22,6.58-4.19,14.47-5.27,21.21-1.31.27-2.51-.41-2.88-1.67-.91-3.12,3.76-16.72,4.61-21.08,3.31-17.09,5.68-34.49,8.41-51.53,1.07-6.67.68-7.81.87-13.62.44-13.62,4.16-29.06,5.09-43.44,1.15-17.9.12-34.77-1.22-53.83-.85-12.11-1.33-24.45-2.96-35.98-2.4-16.97-6.13-24.26-12.38-39.57-1.93-4.73-8.73-24.8-11.78-27.68-6.03-5.7-9.47-9.15-14.71-17.02-9.06-13.58-17.9-24.01-29.62-35.26-1.79-1.72-5.85-1.94-8.13-3.65-5.01-3.77-4.59-4.97-12.08-8.89-6.41-3.35-11.53-7.43-18-10.98-6.12-3.35-9.44-2.64-13.4-4.62-1.44-.72-1.48-2.58-2.38-2.8-1.75-.43-4.28.29-6.58-.2-6.58-1.39-22.89-9.84-29.19-9.77-1.34.01-2.38,1.78-3.94,1.9-2.82.21-11.18-2.35-14.96-2.99-10.41-1.77-25.39-4.33-35.97-2.83-3.85.55-8.61,2.74-12.92,1.97-.73-.13-.59-1.99-1.27-2.09-1.81-.26-7.81,1.88-10.83,2.08-3.63.23-9.11-1.23-10.93-1.06-.36.03-4.53,4.86-5.23,4.95-7.48,1.02-15.36,3.08-22.79,4.12-3.83.54-9.48-.82-12.99-.12-1.14.23-.19,2.55-.6,2.96-.37.36-6.82-.13-9.16,1.13-1.46.79-1.86,3.57-3.79,4.46-2.28,1.05-5.4.38-8.25,1.74-2.99,1.43-4.31,4.63-8.74,6.24-2.38.87-7.79,1.18-8.74,1.76-.66.41-.85,2.63-2.19,3.28-1.92.93-5.38.06-5.96.61-.32.31.22,2.1-.25,2.62-.59.67-3.74.61-5.18,1.43-2.5,1.41-2.1,2.2-6.64,3.81-1.07.38-7.52,2.88-7.86,3.19-.48.45.42,2.29-.78,2.84-1.96.89-6.59.44-9.11,1.7-2.02,1.01-2.42,3.62-3.89,4.1-3.03,1-5.82-.27-10.22,1.78-4.05,1.89-3.94,4.98-5.09,5.86-1.35,1.03-5.05.9-8.05,2.97-3.07,2.12-6.37,8.67-6.93,9.05-3.44,2.3-14.87,5.11-19,6.47-.89.29-6.69,2.77-6.99,3v-3.99c-.23-.24-5.11,1.59-5.99,1.99l.49-4c-3.03-.64-4.68,2.61-6.54,3.45-5.8,2.6-11.53,5.84-17.15,6.82-4.81,2.48-8.49,5.81-13.75,7.72-1.29-5.8,4.88-6.12,7.52-8.96,5.06-5.44,9.38-9.29,14.43-14.58.84-.88,2.73-1.28,2.94-1.57.49-.68-1.45-3.43-.86-5.23.73-2.23,8.92-1.3,6.94-7.61-4.69-1.92-5.44,2.61-6.6,2.92-1.36.37-3.14-1.14-4.7-.78-1.07.25-2.77,2.54-4.68,3.36-3.61,1.55-7.29,1.54-10.27,2.54-1.09.37-.41,2.73-3.23,1.96-.37-.1-.55-2.06-1-2.07-1.6-.02-3.12,2-4.98,2-1.98,0-4.27-2.63-6.81-2.01-.8.2-.92,1.8-1.78,2.46-.78.61-2.41.39-2.75.75-1.3,1.38,2.5,5.14-5.14,3.83-1.08-4.82,4.03-5.21,5.29-8.29.74-1.81-.37-3.38.19-4.66s3.14-2.67,4.27-4.76,2.02-8.8,2.36-9.13c1.49-1.48,7.79,1.37,6.87-8.12,4.38-4.76,10.57-10.94,13.99-15.98,6.59-4.74,6.91-5.34,11.99-10.99.31-.35.69-.65,1-1,8.35-4.99,16.72-11.67,24.29-17.95,23.09-19.16,51.11-36.24,78.72-50.37,5.51-2.82,11.49-4.64,16.87-7.6.32-.06.68.05,1,0,4.47-.75,12.04-4.76,17.02-6.51,1.59-.56,3.54.21,2.96-2.48.32-.06.68.05,1,0,5.83-.99,11.41-1.06,16.98-3.01l-1.99-2.98c.32-.06.67.04,1,0,5.15-.57,10.99.37,16.36-.13,6.95-.65,14.61-2.86,21.6-3.88l-1.99-1.98c5.2-.05,10.32-.69,15.52-1.01,1.92-.12,4.01,1.07,3.45-2,1.33.03,2.67-.03,4,0Z"/>
          <path class="cls-15" d="M861.38,215.78c.28.2.79.72,1,1,.2.76-.04,1.68,1,2,1.25,2.98,1.36,6.32,2.5,8.99,6.42,14.97,12.62,30.45,15.22,46.72.93,5.8-.85,13.31,5.25,17.22.07.32-.07.68,0,1,.5,2.23,3,11.58,3,12.49v15.98c0,1.51,2.07,4.65,0,7.49-.17-.14-1.32.38-1.79-.19-2.16-2.67-2.77-12.62-3.45-16.06-6.42-32.53-11.94-67.38-24.74-97.64.62.37,1.41.58,2,1Z"/>
          <path class="cls-5" d="M384.83,26.97c-5.39,2.96-11.37,4.78-16.87,7.6-27.61,14.13-55.63,31.21-78.72,50.37-7.57,6.28-15.94,12.96-24.29,17.95,10.6-12.1,33.94-30.13,47.47-38.95,12.58-8.2,25.91-15.1,38.39-21.55,13.43-6.95,18.06-12.38,34.03-15.42Z"/>
          <path class="cls-5" d="M477.74,3c.55,3.06-1.54,1.88-3.45,2-5.2.32-10.33.96-15.52,1.01l1.99,1.98c-6.99,1.02-14.65,3.23-21.6,3.88-5.37.5-11.2-.44-16.36.13,3.83-2.35,9.27-.27,13.44-1.05,2.64-.49,4.19-3.16,6.28-3.71,8.63-2.25,26.26-4.43,35.23-4.23Z"/>
          <path class="cls-5" d="M689.54,37.96c15.24,5.99,28.47,15.08,43.19,22.28l12.76,10.69c-17.43-10.78-34.42-19.26-52.1-29.1-.74-.41-4.49-2.61-3.85-3.87Z"/>
          <path class="cls-5" d="M263.94,103.89c-5.07,5.65-5.4,6.25-11.99,10.99-3.42,5.05-9.6,11.23-13.99,15.98-6.44,7-12.83,14.71-19.32,22.65-3.68,4.5-9.36,7.94-11.65,13.31l-3,1c2-7.74,9.59-9.67,12.43-14.05,8.09-12.5,23.56-30.28,35.53-38.9.83-1.22.66-2.16,2.45-4.03,2.45-2.55,6.66-4.76,9.53-6.95Z"/>
          <path class="cls-5" d="M421.79,11.99l1.99,2.98c-5.57,1.95-11.14,2.02-16.98,3.01,1.84-4.04,6.31-2.32,9.28-3.21,2.16-.64,3.24-2.31,5.71-2.79Z"/>
          <path class="cls-5" d="M747.48,71.93c6.22,3.89,7.09,5.17,11.99,9.99-4.31-2.04-8.77-6.43-11.99-9.99Z"/>
          <path class="cls-3" d="M204,170.83c.14-.59-.14-1.41,0-2,.07-.32-.08-.69,0-1l3-1c-.6,1.4.69,4.18-3,4Z"/>
          <path class="cls-5" d="M760.47,82.92c4.45,1.27,8.5,4.83,11.99,7.99-4.05-.7-9.04-5.16-11.99-7.99Z"/>
          <path class="cls-1" d="M843.39,186.81c5.59,9.77,11.31,16.91,15.98,27.97,12.8,30.26,18.32,65.11,24.74,97.64.68,3.44,1.28,13.39,3.45,16.06.46.57,1.62.05,1.79.19.67.56,1.82.95,1.99,1.72.64,2.88,1.77,10.26,2,13.26,6.41,83.48-28.4,184.03-59.75,260.43-6.91,16.84-13.75,35.75-23.61,50.32-7.22,10.67-17.87,15.04-27.84,20.87-1.31.76-2.55,4.21-5.47,4.86-1.81.4-3.49-.76-4.59-.52-6.34,1.39-7.96,3.56-16.06,2.65-1.87-.21-3.5-1.95-5.05-1.9s-3.45,2.19-5.43,2.54c-3.48.62-7.28-1.06-12.7.27-3.07.75-7.07,3.83-8.02,3.98-1.38.21-4.35-2.96-6.87-2.79-2.08.14-2.75,2.49-4.05,2.73s-2.93-1.16-5.42-.39c-2.07.64-3.36,3.43-5.5,3.65-2.41.24-11.99-3.87-14.93-4.13s-6.08,1.6-8.95,1.12c-2.28-.38-2.98-2.87-4.96-2.96-4.43-.2-11.46.97-16.03.98-4.27,0-21.84-1.35-23.76-.87-7.14,1.78-15.69,9.02-21.28,13.77-4.17,3.54-10.45,8.86-14.41,12.6-1.8,1.7.15,4.14-5.51,4.23-18.68.27-30.85,11.72-47.08,14.09-1.58.23-4.4.73-5.38-.91,4.77-1.49,14.02-6.45,19.6-8.92,8.08-3.58,32.93-21.6,37.82-29.11.67-1.02.17-3.02.76-3.71.38-.45,2.23-.28,3.22-1.23,4.96-4.79,18.12-29.79,21.53-36.94-.36,2.67.98,2.83,2.43.93.49-.64,4.15-7.83,4.79-9.2,3.6-7.75,10.66-25.74,10.77-32.69.12-7.73,3.72-11.54,5-16.98,1.77,2.78,1.07,7.7,2.02,10.23.5,1.33,2.67,1.26,2.94,2.31.41,1.57-3.07,5.36-3.68,7.21-.79,2.38-.64,5.45-1.6,8.39-.2.62-6.21,11.19-1.65,7.34,1.8-1.52,9.69-10.63,11.17-12.81,7.66-11.3,11.61-28.86,18.04-40.9,9.95-18.63,22.94-20.7,38.65-32.28,8.82-6.5,10.45-10.17,17.05-17.91,1.32-1.55,3.94-2.26,5.04-3.95s.84-3.85,1.86-5.13c1.12-1.41,3.83-1.35,5.14-2.85,1.2-1.38,1.23-4.02,2.43-5.56,1.5-1.92,3.62-1.71,4.97-3.02,1.54-1.5,3.44-6.72,5.09-8.89,3.75-4.92,10.69-9.88,13.85-14.12,1.43-1.92,2.4-5.35,4.57-8.13,2.03-2.59,9.84-8.23,10.52-9.83.97-2.27-1.29-4.57-.14-6,.8-1,3.36-.81,4.12-1.93.63-.93.61-3.75,1.41-5.63,1.05-2.48,3.29-2.66,4.48-4.45,10.58-15.9,15.65-34.94,21.03-52.92.82-2.72,4.07-5.37,4.38-6.65.41-1.74-1.33-3.57-.45-6.33.61-1.91,3.12-3.3,3.45-4.66.36-1.5-.97-3.62-.83-5.69.22-3.27,2.51-8.89,2.96-13.11,2.84-26.68,4.82-53.72,7-79.9.72-8.57,4.6-15.19,5.78-22.24.29-1.74-.97-3.41-.72-4.67,1.03-5.2,5.52-15.9,4.91-19.98-.32-2.12-2.1-3.67-1.96-5.98.34-5.44,4.82-8.22,3.98-19.05-.39-4.94-4.47-11.17,1.02-14.5Z"/>
          <path class="cls-8" d="M360.85,135.86c4.54-1.61,4.14-2.4,6.64-3.81,1.44-.81,4.59-.75,5.18-1.43.46-.53-.07-2.32.25-2.62.57-.55,4.04.32,5.96-.61,1.34-.65,1.53-2.88,2.19-3.28.94-.58,6.36-.89,8.74-1.76,4.43-1.62,5.75-4.81,8.74-6.24s5.97-.69,8.25-1.74c1.93-.89,2.33-3.67,3.79-4.46,2.33-1.26,8.79-.77,9.16-1.13.42-.41-.54-2.73.6-2.96,3.52-.7,9.16.66,12.99.12,7.43-1.04,15.3-3.1,22.79-4.12.7-.1,4.87-4.92,5.23-4.95,1.83-.17,7.3,1.29,10.93,1.06,3.02-.19,9.01-2.33,10.83-2.08.68.1.55,1.96,1.27,2.09,4.31.77,9.07-1.42,12.92-1.97,10.59-1.5,25.56,1.06,35.97,2.83,3.78.64,12.14,3.21,14.96,2.99,1.56-.12,2.59-1.89,3.94-1.9,6.29-.07,22.61,8.38,29.19,9.77,2.29.48,4.83-.23,6.58.2.9.22.94,2.08,2.38,2.8,3.96,1.98,7.28,1.27,13.4,4.62,6.48,3.55,11.59,7.63,18,10.98,7.48,3.92,7.07,5.12,12.08,8.89,2.28,1.71,6.33,1.93,8.13,3.65,11.72,11.25,20.57,21.68,29.62,35.26,5.25,7.86,8.68,11.32,14.71,17.02,3.05,2.88,9.85,22.95,11.78,27.68,6.25,15.31,9.98,22.6,12.38,39.57,1.63,11.54,2.11,23.87,2.96,35.98,1.34,19.06,2.38,35.94,1.22,53.83-.93,14.38-4.65,29.82-5.09,43.44-1.23.3-4.77-.76-5.01.64-.29,1.69-1.08,5.65-1.04,6.91.06,2.22,1.73,3.26,2.01,4.98,1.62,9.93-3.04,7.96-3.89,13s1.12,12.16-.87,17.04c-1.2,2.92-1.48.38-2.57,5.71-1.46,7.11-2.82,7.81-5.1,13.67-3.31,8.53-2.04,15.04-3.74,22.21-.44,1.87-3.23,4.08-3.61,6.5-.29,1.86.8,3.47.61,4.63-.25,1.49-5.75,5.28-6.52,8.34-.62,2.46.09,5.05-.47,7.52-2.56,11.27-6.06,23.24-9.24,33.72-.95,3.14-1.41,8.91-5.51,8.97,1.16-6.85-.14-13.08-.01-19.97-2.09-2.4-6.77,10.02-5,11.98l-2.99-4.99c3.93-21.61,2.59-43.07-4-63.94-.28-2.28.48-5.17-.03-7.3-.41-1.71-4.48-8.99-4.75-12.41-.3-3.84,1.8-6.24-.22-11.26l9.99,7.99c0,.67,0,1.33,0,2,0,.08-.86.43-.75,1.26.14,1.02,2.18,5.84,3.75,4.73.35,2.81-.26,6.1,0,8.99l2.82-1.66c.65-7.98,2.55-15.82,3.16-23.82,2.39-31.76-.18-67.55-5-98.88-2.38-15.49-4.81-28.88-10.52-43.42-1.63-4.15-7.15-10.4-7.46-15.62-.21-3.44,4.66-5.95,3.91-8.7-.34-1.25-2.37-2.02-2.73-3.4-.31-1.19.72-2.69.39-4.32-1.03-5.09-11.32-16.44-14.01-21.02-.66-1.11-.23-3.17-.71-3.74-.58-.7-4-.42-4.64-1.38-.51-.76.1-2.76-.64-3.83-.7-1-2.56-.66-3.25-1.23-.98-.81-.71-3.15-2.3-4.2-1.49-.99-3.33-.3-5.53-2.46-2.7-2.66-2.44-8.41-4.42-9.63-1.85-1.14-3.87.83-5.36.65-.99-.12-1.11-3.36-3.34-3.97-2.03-.55-4.15,1.22-5.64.79-1.31-.37-1.84-2.92-3.24-3.81-3.79-2.41-9.76.5-8.4-8.09-1.17-1.28-9.75,7.22-7.99-4.99-3.17.5-4.78,4-8.52,3.89-1.62-.05-2.79-1.39-4.19-1.67-15.98-3.22-30.59-5.3-47.76-5.17-22.42.18-44.69-1.51-67.85,1.98-1.53.23-2.55,1.78-4.08,1.94-1.66.17-4.03-1.65-5.45.03-2.54-.45-6.95-4.46-8.72-4.81-1.54-.3-15.3.71-16.28,1.33-.71.44-.69,2.37-1.64,2.56-1.89.39-3.81-1.62-6.26-.6s-5.61,5.97-6.72,6.36c-4.04,1.43-6.84-2.12-9.6-1.7-2.35.36-3.73,3.16-5.43,3.64-3.23.91-7.73-.47-11.28,1.2-1.8-7.03,4.68-7.91,7-10.47,1.32-1.45.6-3.78,2-5,1.01-.88,3.56-.66,4.54-2.5.64-1.21-.32-7.66-.61-7.94-1.67-1.61-9.21,1.57-11.52,1.84-1.9.22-5.73-.86-7.41-.9,1.77-1.73.42-7.08,1.11-7.89.34-.4,7.14-1.21,7.73-3.69.33-1.39-1.87-5.3-1.77-7.82.24-6.15,7.85-7.94,11.35-12.6,2.34-3.11,3.73-9.72,5.04-10.97,1.07-1.02,6.14-2.08,8.53-3.5,1.28-.76,2.52.19,1.97-2.48-2.94-.05-4.84,1.96-7.71,2.77-1.84.52-4.02-.18-5.56.21-.93.23-.95,2.07-2.39,2.79-1.95.98-7.64.92-8.15,1.39-.47.43-.06,2.57-1.11,3.35-1.33.99-8.84,1.26-11.62,2.39-3.42,1.39-6.92,4.22-11.41,6.07.73-5.59,6.04-3.87,3-10.46,3.41-1.59,4.85-.08,5.99-5.52Z"/>
          <path class="cls-15" d="M709.52,393.6c-.19,5.81.2,6.95-.87,13.62-2.72,17.05-5.1,34.44-8.41,51.53-.85,4.37-5.52,17.97-4.61,21.08.37,1.26,1.58,1.94,2.88,1.67,1.08-6.74,3.05-14.63,5.27-21.21,4.3-12.74,12.43-26.23,17.45-39.49,2.4-6.34,3.92-17.01,6.24-22.51.56-1.32,3.51-.55,3.97-2.3.31-1.17-.9-2.75-.85-3.95.11-2.47,2.59-15.15,3.33-18.45.33-1.48,2.3-3.24,2.39-4.64s-1.82-2.43-1.83-3.83c-.01-1.17,1.64-2.45,1.93-4.07,1.2-6.77,2.48-13.59,3.63-20.35.27-1.57-.74-3.3-.43-4.38.65-2.3,4.57-1.96,4.9-3.33,1.8-7.41-3.66-8.72-4.05-12.93-.28-3.02,1.84-4.18,1.81-5.71-.06-2.53-3.08-4.21-.79-7.98.38-.63,2-.62,2.05-1.32.12-1.68-1.57-3.1-.6-5.33.65-1.49,3.66-2.69,4.34-4.73,1.82-5.42-3.45-1.79-2.77-4.76.32-1.39,2.52-3.4,2.8-5.29.37-2.43-1.28-4.57-.71-6.52.39-1.34,2.42-2.14,2.72-3.41.33-1.4-.91-3.04-.69-4.6.27-1.86,2.66-3.15,2.62-5.01-.04-2.22-2.74-4.45-2.88-7.17-.32-6.06,1.49-13.99,1.12-20.02-.31-5.19-2.66-12.93-2.75-17.74-.05-2.64,2-6.06,1.7-9.11s-3.79-6.24-3.95-9.13c-.18-3.19.96-9.61.76-12.93-.55-9.46-2.91-21.6-2.89-30.97,0-3.71,1.65-7.21,1.15-11.03-.31-2.4-2.08-3.75-2.13-5.91-.02-.87,2.21-10.28,2.63-11.46,1.58-4.38,11.06-13.2,11.28-15.72.21-2.33-4.14-3.19-2.37-5.37.83-1.01,3.41-.33,2.53-3.43-.08-.3-3.43-.4-1.88-4.88.98-2.82,5.98-.43,4.85-3.12-.38-.91-6.31-6.33-4.98-7.5,2.75-1.04,4.13,2.5,5.6,2.77,2.51.46,6.43-3.41,6.4,3.22,1.83.56,2.56-1.67,3.68-1.87,2.19-.39,18.49,19.09,22.83,20.81,22.16,21.7,36.42,45.76,51.41,71.97-5.49,3.33-1.4,9.56-1.02,14.5.85,10.83-3.64,13.6-3.98,19.05-.14,2.31,1.64,3.87,1.96,5.98.61,4.08-3.88,14.78-4.91,19.98-.25,1.26,1.01,2.93.72,4.67-1.18,7.05-5.06,13.67-5.78,22.24-2.19,26.18-4.16,53.23-7,79.9-.45,4.22-2.74,9.85-2.96,13.11-.14,2.07,1.19,4.19.83,5.69-.33,1.36-2.84,2.75-3.45,4.66-.88,2.76.87,4.59.45,6.33-.31,1.29-3.56,3.93-4.38,6.65-5.38,17.97-10.45,37.02-21.03,52.92-1.19,1.79-3.42,1.96-4.48,4.45-.8,1.88-.77,4.7-1.41,5.63-.76,1.12-3.31.93-4.12,1.93-1.15,1.43,1.11,3.72.14,6-.68,1.6-8.5,7.24-10.52,9.83-2.18,2.78-3.14,6.21-4.57,8.13-3.17,4.24-10.1,9.2-13.85,14.12-1.66,2.18-3.55,7.39-5.09,8.89-1.35,1.31-3.47,1.11-4.97,3.02-1.2,1.54-1.23,4.18-2.43,5.56-1.31,1.5-4.02,1.44-5.14,2.85-1.02,1.29-.82,3.53-1.86,5.13-1.1,1.69-3.72,2.4-5.04,3.95-6.6,7.74-8.23,11.41-17.05,17.91-15.71,11.58-28.7,13.65-38.65,32.28-6.43,12.04-10.38,29.6-18.04,40.9-1.48,2.18-9.36,11.29-11.17,12.81-4.56,3.85,1.44-6.72,1.65-7.34.96-2.93.81-6,1.6-8.39.61-1.85,4.09-5.64,3.68-7.21-.27-1.05-2.44-.98-2.94-2.31-.94-2.53-.24-7.45-2.02-10.23.27-1.14.14-4.63,0-5.99,1.6-9.5,5.75-19.51,6.99-28.97,3.84.39,1.37-1.51,1-3-2.2-8.76.71-10.9,2-17.98l2.99,4.99c-1.77-1.95,2.91-14.38,5-11.98-.13,6.89,1.17,13.12.01,19.97,4.1-.06,4.56-5.82,5.51-8.97,3.17-10.48,6.68-22.44,9.24-33.72.56-2.47-.15-5.06.47-7.52.77-3.07,6.27-6.85,6.52-8.34.19-1.15-.89-2.77-.61-4.63.38-2.42,3.17-4.63,3.61-6.5,1.7-7.18.43-13.69,3.74-22.21,2.28-5.86,3.64-6.56,5.1-13.67,1.09-5.33,1.37-2.79,2.57-5.71,1.99-4.87,0-11.95.87-17.04s5.51-3.07,3.89-13c-.28-1.72-1.94-2.76-2.01-4.98-.04-1.26.76-5.22,1.04-6.91.24-1.4,3.78-.34,5.01-.64ZM655.57,544.44v4.01s1.99,0,1.99,0v-4.01s-1.99,0-1.99,0Z"/>
          <path class="cls-4" d="M237.97,130.87c.92,9.49-5.38,6.64-6.87,8.12-.33.33-1.2,7-2.36,9.13s-3.69,3.45-4.27,4.76.55,2.86-.19,4.66c-1.26,3.07-6.37,3.46-5.29,8.29,7.65,1.31,3.85-2.45,5.14-3.83.34-.37,1.96-.15,2.75-.75.86-.67.97-2.27,1.78-2.46,2.55-.62,4.83,2.01,6.81,2.01,1.86,0,3.38-2.02,4.98-2,.45,0,.64,1.97,1,2.07,2.83.77,2.14-1.59,3.23-1.96,2.98-1,6.66-.99,10.27-2.54,1.91-.82,3.61-3.11,4.68-3.36,1.56-.36,3.33,1.15,4.7.78,1.16-.32,1.91-4.85,6.6-2.92,1.98,6.31-6.21,5.38-6.94,7.61-.59,1.81,1.35,4.55.86,5.23-.21.29-2.1.69-2.94,1.57-5.05,5.29-9.36,9.14-14.43,14.58-2.64,2.84-8.81,3.15-7.52,8.96,5.27-1.91,8.95-5.23,13.75-7.72,5.62-.99,11.35-4.22,17.15-6.82,1.87-.84,3.52-4.09,6.54-3.45l-.49,4c-1.63.74-12.51,6.92-13.01,7.48-1.59,1.81-3.82,7-6.97,9.99-2.66,2.52-8.35,5.17-9.06,5.94-1.02,1.12-3.74,8.01-4.14,8.34-1.04.86-5.79.15-7.85,3.65-1.2,2.04-.63,4.52-1.37,5.63-.9,1.35-3.5.47-4.35,1.14-.37.29-.48,2.25-1.2,3.26-3.14,4.38-9.37,12.95-14.02,15.07-1.49.68-3.18-.87-3.82-.46-.74.48-9.22,12.75-10.17,14.36-1.92,3.26-4.7,12.33-6.9,14.8-1.23,1.38-2.96,1.11-3.82,1.94-1.85,1.78-.09,5.67-.2,8.21-.14,3.37.17,8.93,0,10.96-.07.87-2.38.73-2.9,2.19-.83,2.34.35,6.2-.15,8.86s-5.67,6.52-2.5,11.52c2.53,3.99,2.37-1.39,2.71-1.76.52-.57,2.36-.22,3.28-1.25,2.31-2.58,7.72-16.77,10.09-20.91,4.28-7.46,9.98-15.47,14.79-23.17,6.67-10.67,16.3-28.28,25.06-36.9,1.52-1.49,1.72-1.35,3.53-1.95.45-1.39.98-3.24,1.95-4.32.9-1,1.85-.54,2.04-.68-.96,6.05-.7,3.91-4,4.99-.58,1.8-.42,5.63-1.51,7.02-.78.98-2.56.65-3.2,1.26-4.2,3.98-6.17,13.24-8.18,16.12-.68.98-2.52.09-3.13,1.24-1.95,3.7-6.43,14.82-8.89,17.7-.85,1-2.54.31-3.15,1.22-.79,1.18-.57,3.82-1.45,5.38-.78,1.39-5.02,3.83-6.37,5.87-7.19,10.78-11.91,26.64-17.63,38.04-2.27,4.52-4.55,3.6-4.43,10.06.01.67,0,1.33,0,2-5.14-.7-3.35,1.25-5.46,2.99-1.83,1.5-8.61,4.76-5.53,8-3.55,2.55-10.14,8.83-13.99,8.99-5.54.23-5.61-2.89-11.2,2-2.04,1.78-4.29,6.13-6.09,7.68-.74.64-8.22,6.48-8.71,6.76-1.44.82-3.83.41-5.07,1.94-1.66,2.06-.41,6.57-2.89,8.59-.2-.34-.86-.48-.98-1.48-1.04-8.45,1.64-19.37,2.98-27.49,1.69,2.75,1.94.2,2.47-1.04,3.33-7.74,4.17-17.75,6.73-26.22.56-1.84,3.48-5.05,4.51-8.48.96-3.2,1.03-9.78,2.23-12.58.57-1.32,2.67-.34,3-.66.78-.78-1.15-4.72-.79-6.25.53-2.32,5.36-5.4,5.66-6.34.97-3.03-.67-7.82.33-10.69.54-1.54,3.21-1.93,4.11-3.88,2.52-5.43,1.5-10.97,1.72-15.76.04-.95-.18-2.22,0-3,3.3.56,2.39-.18,3.46-2,3.1-5.27,2.28-6.3,3.53-10.99,2.88-10.79,11.47-22.21,15.98-31.97.3-.64.68-1.32,1-2s.7-1.34,1-2l5.33-6.21c4.28-6.25,6.45-9.51,9.66-16.76.34-.77.75-1.43,1-2,3.18-.75,3.4-2.09,4-4.99.07-.32-.07-.69,0-1,3.69.19,2.4-2.6,3-4,2.29-5.37,7.97-8.81,11.65-13.31,6.5-7.94,12.88-15.66,19.32-22.65Z"/>
          <path class="cls-9" d="M360.85,135.86c-1.14,5.44-2.58,3.93-5.99,5.52,3.04,6.59-2.27,4.87-3,10.46-1.82.75-7.68,2.2-8.04,2.45-1.11.77-1.59,6.39-3.18,7.3-1.36.77-4.24-.08-6.21,1.3s-1.31,4.23-3.48,6.5c-2.41,2.52-13.08,9.72-16.71,12.28-11.11,7.86-21.98,19.49-30.46,31.45-4.1,5.78-7.17,14.63-9.78,17.93-1.12,1.42-3.3,1.26-4.54,2.71-2.49,2.89-3.88,9.51-5.3,12.68-1.81,4.04-7.68,14.44-8.23,17.82-.34,2.05,2.85.97,2.03,2.94-1.43,3.42-8.2,6.02-9.46,7.53-1.89,2.26-5.77,9.64-7.81,11.67-.87.86-6.83,3.54-8.63,4.86-12.18,8.92-24.23,17.8-34.33,27.11-2.41,2.22-8.6,5.3-11.69,7.29-.12-6.46,2.16-5.54,4.43-10.06,5.72-11.4,10.45-27.26,17.63-38.04,1.36-2.03,5.59-4.48,6.37-5.87.89-1.57.66-4.21,1.45-5.38.61-.91,2.3-.23,3.15-1.22,2.46-2.88,6.94-14,8.89-17.7.6-1.14,2.44-.26,3.13-1.24,2.01-2.88,3.98-12.13,8.18-16.12.64-.61,2.42-.27,3.2-1.26,1.09-1.39.93-5.22,1.51-7.02,3.29-1.08,3.04,1.05,4-4.99.35-.26.64-.7,1-1,2.43-2.03,3.5-2.94,5.96-5.53,2.97-3.12,4.09-1.49,5.03-6.46.06-.32-.05-.67,0-1,3.08.47,1.57-.78,2-2,4.48-1.56,2.47-2.03,4-4,.73-.93.9-1.3,2-2,3.69-2.35,2.89.26,5.99-4.99,1.42-.68,3.04,0,3-3,.32-.2.88-.7,1-1,4.66-.15,4.69-4.08,6.28-5.7,1.73-1.76,5.62-2.71,5.71-6.29,4.13-1.36,15.56-4.18,19-6.47.57-.38,3.86-6.93,6.93-9.05,3-2.07,6.7-1.94,8.05-2.97,1.15-.88,1.04-3.97,5.09-5.86,4.4-2.05,7.2-.78,10.22-1.78,1.47-.49,1.88-3.09,3.89-4.1,2.52-1.26,7.16-.81,9.11-1.7,1.19-.54.3-2.39.78-2.84.33-.31,6.79-2.82,7.86-3.19Z"/>
          <path class="cls-3" d="M276.93,174.82c.89-.4,5.76-2.23,5.99-1.99v3.99c-.16.13-.47,2.76-1.5,3.99-2.67,3.21-1.74.48-3.49,5-.12.3-.68.79-1,1-.29.19-1.4-.1-2.03.48-1.09,1-.69,2.05-.97,2.52-2.27,1.07-5.49,1.42-5.99,4.99-1.1.7-1.27,1.06-2,2-3.1.2-3.2,1.72-4,4-.47.16-1.68-.27-1.97.02-.24.24.06,1.38-.03,1.97-.05.33.06.68,0,1-4.76,1.9-9.35,7.25-10.99,11.99-.36.3-.64.74-1,1-.19.14-1.14-.32-2.04.68-.97,1.07-1.51,2.93-1.95,4.32-1.81.6-2.02.46-3.53,1.95-8.76,8.61-18.38,26.22-25.06,36.9-4.81,7.7-10.51,15.71-14.79,23.17-2.37,4.14-7.78,18.33-10.09,20.91-.92,1.03-2.76.68-3.28,1.25-.34.37-.18,5.75-2.71,1.76-3.17-5,1.99-8.84,2.5-11.52s-.68-6.53.15-8.86c.52-1.47,2.82-1.33,2.9-2.19.17-2.03-.13-7.58,0-10.96.1-2.54-1.65-6.43.2-8.21.86-.83,2.59-.56,3.82-1.94,2.2-2.47,4.98-11.54,6.9-14.8.95-1.62,9.44-13.89,10.17-14.36.63-.41,2.33,1.13,3.82.46,4.65-2.12,10.88-10.69,14.02-15.07.72-1,.83-2.97,1.2-3.26.85-.67,3.45.21,4.35-1.14.74-1.11.17-3.59,1.37-5.63,2.05-3.49,6.81-2.79,7.85-3.65.4-.33,3.13-7.22,4.14-8.34.7-.77,6.4-3.41,9.06-5.94,3.16-3,5.38-8.19,6.97-9.99.5-.56,11.38-6.74,13.01-7.48Z"/>
          <path class="cls-4" d="M289.92,173.82c-.08,3.57-3.98,4.52-5.71,6.29-1.59,1.62-1.62,5.55-6.28,5.7,1.76-4.52.82-1.79,3.49-5,1.03-1.24,1.33-3.86,1.5-3.99.3-.23,6.1-2.7,6.99-3Z"/>
          <path class="cls-1" d="M862.38,216.78c-.21-.28-.72-.8-1-1h1c.07.32-.08.69,0,1Z"/>
          <path class="cls-3" d="M159.04,253.74c-.22,4.79.8,10.33-1.72,15.76-.91,1.95-3.57,2.33-4.11,3.88-1,2.87.64,7.66-.33,10.69-.3.94-5.12,4.02-5.66,6.34-.35,1.54,1.58,5.48.79,6.25-.32.32-2.43-.66-3,.66-1.2,2.8-1.27,9.38-2.23,12.58-1.03,3.43-3.95,6.64-4.51,8.48-2.56,8.46-3.4,18.48-6.73,26.22-.53,1.24-.78,3.79-2.47,1.04.05-.32-.06-.68,0-1l.99-1.49-.99-.51c2.4-12.88,6.31-26.31,9.99-38.96,2.87,1.88,1.55.81,2.26-1.21,2.42-6.85,3.89-13.84,5.73-20.76.34-1.29.66-2.68,1-4l5.28-11.2,2.71-10.78c.31-.78.76-1.41,1-2h2Z"/>
          <path class="cls-13" d="M182.02,205.79c-4.52,9.76-13.1,21.17-15.98,31.97h-2c6.18-13.21,9.81-20.03,17.98-31.97Z"/>
          <path class="cls-13" d="M147.06,281.71c-1.84,6.92-3.31,13.91-5.73,20.76-.72,2.03.61,3.1-2.26,1.21,2.16-7.42,3.8-15.37,7.99-21.98Z"/>
          <path class="cls-13" d="M156.05,255.74l-2.71,10.78-5.28,11.2c2.43-9.47,4.5-13.35,7.99-21.98Z"/>
          <path class="cls-3" d="M166.04,237.76c-1.25,4.69-.43,5.72-3.53,10.99-1.07,1.82-.16,2.56-3.46,2,.56-2.39,4.44-7.38,4.88-10.52l-.89-.47c.32-.69.69-1.34,1-2h2Z"/>
          <path class="cls-13" d="M159.04,250.75c-.18.78.04,2.05,0,3h-2c2.12-5.17,3.6-8.8,5.99-13.99l.89.47c-.44,3.14-4.32,8.14-4.88,10.52Z"/>
          <path class="cls-4" d="M129.07,344.65c.11-.62-.11-1.38,0-2l.99.51-.99,1.49Z"/>
          <path class="cls-9" d="M161.04,347.65c-.66,1.73-1.61,3.24-2.96,4.54-8.63,8.27-21.94,15.56-30.01,23.44-.32-.32-.78-.61-1-1,2.49-2.02,1.23-6.54,2.89-8.59,1.24-1.53,3.63-1.12,5.07-1.94.49-.28,7.97-6.12,8.71-6.76,1.79-1.55,4.05-5.9,6.09-7.68,5.59-4.89,5.67-1.76,11.2-2Z"/>
          <path class="cls-16" d="M863.37,218.78c-1.04-.32-.8-1.23-1-2,.67.89.64,1.15,1,2Z"/>
          <path class="cls-3" d="M199.01,178.82c-3.21,7.25-5.38,10.51-9.66,16.76l-5.33,6.21c3.67-7.98,8.98-16.63,14.99-22.98Z"/>
          <path class="cls-3" d="M204,171.83c-.59,2.9-.82,4.24-4,4.99.95-2.17,1-5.18,4-4.99Z"/>
          <path class="cls-3" d="M182.02,205.79c.27-.39-.19-1.81,1-2-.32.68-.7,1.36-1,2Z"/>
          <path class="cls-15" d="M641.58,607.39c-.11,6.94-7.17,24.94-10.77,32.69-.64,1.37-4.3,8.56-4.79,9.2-1.45,1.9-2.79,1.74-2.43-.93,6.4-13.42,10.07-28.3,17.98-40.96Z"/>
          <path class="cls-2" d="M437.78,198.8c1.42-1.68,3.79.14,5.45-.03,1.54-.16,2.56-1.71,4.08-1.94,23.17-3.5,45.44-1.81,67.85-1.98,17.18-.13,31.78,1.95,47.76,5.17,1.41.28,2.57,1.63,4.19,1.67,3.74.11,5.35-3.39,8.52-3.89-1.76,12.2,6.82,3.7,7.99,4.99-1.35,8.59,4.61,5.67,8.4,8.09,1.4.89,1.93,3.44,3.24,3.81,1.49.42,3.61-1.34,5.64-.79,2.23.61,2.35,3.85,3.34,3.97,1.49.18,3.51-1.8,5.36-.65,1.98,1.22,1.73,6.97,4.42,9.63,2.2,2.16,4.04,1.47,5.53,2.46,1.59,1.06,1.32,3.4,2.3,4.2.69.57,2.56.22,3.25,1.23.74,1.07.13,3.07.64,3.83.64.96,4.06.68,4.64,1.38.48.57.05,2.63.71,3.74,2.7,4.58,12.98,15.93,14.01,21.02.33,1.63-.7,3.13-.39,4.32.36,1.38,2.39,2.15,2.73,3.4.75,2.76-4.12,5.26-3.91,8.7.32,5.22,5.83,11.47,7.46,15.62,5.71,14.55,8.14,27.93,10.52,43.42,4.82,31.32,7.39,67.11,5,98.88-.6,7.99-2.5,15.84-3.16,23.82l-2.82,1.66c-.26-2.89.34-6.18,0-8.99-.26-2.08-.93-5.13-3-5.99,0-.67,0-1.33,0-2,.01-5.79,1.55-15.42,1.1-20.49-.2-2.24-2.08-3.7-2.1-4.99-.02-1.55,3.16-4.46,3.06-10.01-.19-10.65-3.87-18.86-1.83-29.7,2.69-14.27,3.86-15.18,1.82-30.28-4.65-34.56-11.6-55.81-37.03-80.35-7.54-7.28-11.87-10.58-20.98-15.98-4.62-2.74-27.59-15.99-30.97-15.98-.55-.59-1.25-.78-2-1-1-.3-3.2-1.02-4-1-.81-1.13-2.07-.73-3-1-1.96-.56-5.11-2.01-6.99-2-.79-.93-1.85-1.09-3-1-.66.05-1.34-.01-2,0-1.22-1.38-2.74-1.39-4,0-.98-.05-2.08.14-3,0,.62-3.03-1.5-1.84-4-2-1.63-.11-3.42.19-5,0-4.78-.57-9.78-1.9-14.99-2-2.96-.05-6.04-.16-8.99,0-2.28-1.6-6.17-1.19-8.99-1-.66.04-1.33-.02-2,0-2.6-1.67-7.37-1.69-9.99,0-.65-.04-1.34-.02-2,0-.46-1.22-1.92-1.08-3-1-2.02.15-3.98.73-5.99,1-1.51-1.85-5.3-1.41-6.99,0-2.65-.03-4.64.95-5.99,1-.99.04-2.01-.09-3,0-1.93.17-4.16-.27-5.99,0-1.71.25-1.89.98-2,1-1.36.19-2.71.83-4,1-18.94,2.43-39.72,3.97-57.94,9.99-5.81.47-12.41,1.93-18.02,3.46-18.58,5.05-40.71,12.12-58.9,18.52-1.88.66-3.25,1.73-4,2-1.49.54-3.01.64-4,1-2.75-1.49-.28-1.91.87-2.59,11.47-6.74,22.47-10.42,34.81-15.19,5.65-2.18,13.36-3.96,18.03-6.84,1.34-.83,1.69-2.84,2.87-3.19,1.81-.55,4,.24,5.74-.32,1.42-.46,8.65-7.82,9.27-7.91,1.44-.2,3.25,1.44,5.57.9,3.47-.82,8.14-6.67,10.73-7.43s4.39,1.31,6.98.14c6.83-3.09,16.38-14.58,24.67-17.18.83-.26,2.4.89,3.36.26,1.74-1.15.63-5.24.97-5.59.26-.26,3.94.32,5.39-.13,1.78-.56,1.29-2.48,1.61-2.86Z"/>
          <path class="cls-14" d="M365.85,181.82c1.68.04,5.51,1.12,7.41.9,2.31-.27,9.85-3.45,11.52-1.84.29.28,1.25,6.73.61,7.94-.98,1.85-3.53,1.62-4.54,2.5-1.4,1.22-.68,3.54-2,5-2.32,2.56-8.8,3.44-7,10.47,3.55-1.67,8.05-.29,11.28-1.2,1.7-.48,3.07-3.28,5.43-3.64,2.76-.42,5.56,3.13,9.6,1.7,1.11-.39,4.33-5.36,6.72-6.36s4.37.98,6.26.6c.95-.19.93-2.12,1.64-2.56.99-.61,14.74-1.63,16.28-1.33,1.77.35,6.18,4.36,8.72,4.81-.32.38.17,2.3-1.61,2.86-1.45.45-5.13-.13-5.39.13-.34.34.77,4.43-.97,5.59-.95.63-2.53-.52-3.36-.26-8.3,2.6-17.85,14.09-24.67,17.18-2.59,1.18-4.44-.88-6.98-.14s-7.26,6.61-10.73,7.43c-2.32.55-4.13-1.1-5.57-.9-.62.08-7.86,7.45-9.27,7.91-1.74.57-3.93-.22-5.74.32-1.18.36-1.52,2.36-2.87,3.19-4.68,2.88-12.38,4.66-18.03,6.84-12.34,4.76-23.34,8.45-34.81,15.19-1.15.67-3.62,1.1-.87,2.59-.83.31-2.26,1.34-4,2-33.63,12.8-69.33,30.98-99.91,49.95-1.04-4.83,5.86-5.1,7.72-6.27.72-.45,1.06-2.44,2.21-3.27,14.6-10.47,31.66-20.93,46.72-29.22,4.52-2.49,16.12-6.33,18.95-9.52,1.19-1.35,2.12-5.5,4.39-7.09,2.08-1.45,5.46-1,6.91-2.08,1.29-.96,5.75-9.87,7.14-11.84,1.24-1.76,3.4-2.19,4.73-4.26,1.66-2.58,2.56-10.37,3.34-11.14.87-.86,4.51-.53,5.55-1.44.92-.8.64-3.2,1.56-4.46,1.63-2.23,6.97-5.57,8.12-7.35s.98-4.65,2.06-5.93,3.46-1.09,4.56-2.43c.45-.55,5.65-11.11,6.32-12.69.58-1.36.46-3.75.59-3.89.56-.59,3.82,1.46,5.02.6,1.47-1.04,1.08-5.64,3.62-6.43,2.8-.87,8.73.67,11.34-1.65,1.52-1.36.61-4.82,2.98-6.01,1.95-.98,6.57-.54,9.01-.48Z"/>
          <path class="cls-11" d="M351.86,151.85c4.49-1.85,8-4.68,11.41-6.07,2.78-1.13,10.28-1.4,11.62-2.39,1.05-.78.63-2.92,1.11-3.35.52-.47,6.21-.41,8.15-1.39,1.44-.72,1.45-2.56,2.39-2.79,1.55-.38,3.72.31,5.56-.21,2.87-.81,4.77-2.82,7.71-2.77.55,2.66-.69,1.72-1.97,2.48-2.39,1.41-7.45,2.48-8.53,3.5-1.32,1.25-2.7,7.86-5.04,10.97-3.5,4.66-11.11,6.45-11.35,12.6-.1,2.52,2.1,6.44,1.77,7.82-.59,2.48-7.39,3.3-7.73,3.69-.69.81.66,6.16-1.11,7.89-2.43-.06-7.06-.49-9.01.48-2.37,1.19-1.45,4.66-2.98,6.01-2.61,2.32-8.54.78-11.34,1.65-2.54.79-2.15,5.39-3.62,6.43-1.2.85-4.46-1.2-5.02-.6-.14.14-.01,2.53-.59,3.89-.67,1.58-5.87,12.14-6.32,12.69-1.1,1.34-3.51,1.18-4.56,2.43s-.96,4.23-2.06,5.93-6.49,5.12-8.12,7.35c-.92,1.26-.63,3.66-1.56,4.46-1.05.91-4.68.58-5.55,1.44-.78.77-1.68,8.57-3.34,11.14-1.33,2.07-3.49,2.5-4.73,4.26-1.39,1.97-5.85,10.88-7.14,11.84-1.45,1.08-4.83.63-6.91,2.08-2.28,1.58-3.2,5.74-4.39,7.09-2.83,3.19-14.43,7.03-18.95,9.52-15.06,8.29-32.12,18.76-46.72,29.22-1.15.82-1.49,2.81-2.21,3.27-1.86,1.17-8.76,1.44-7.72,6.27-4.72,2.93-10.28,6.77-14.99,9.99-.75.08-1.68-.96-2-1,0-.67.01-1.33,0-2,3.09-1.99,9.28-5.07,11.69-7.29,10.1-9.31,22.15-18.19,34.33-27.11,1.8-1.32,7.76-4,8.63-4.86,2.05-2.03,5.92-9.41,7.81-11.67,1.26-1.51,8.03-4.11,9.46-7.53.82-1.96-2.36-.89-2.03-2.94.56-3.38,6.42-13.78,8.23-17.82,1.42-3.17,2.82-9.79,5.3-12.68,1.24-1.45,3.42-1.29,4.54-2.71,2.61-3.29,5.68-12.15,9.78-17.93,8.48-11.97,19.35-23.59,30.46-31.45,3.63-2.57,14.3-9.76,16.71-12.28,2.17-2.28,1.61-5.19,3.48-6.5,1.97-1.38,4.85-.52,6.21-1.3,1.59-.9,2.08-6.53,3.18-7.3.36-.25,6.22-1.71,8.04-2.45Z"/>
          <path class="cls-2" d="M653.57,553.44c-.06.65.08,1.35,0,2-1.24,9.46-5.4,19.47-6.99,28.97-.1-.95-1.36-4.92-2-5.99.13-1.28-.2-2.8,0-4,1.92.71,4.56-4.97,4.76-5.74.95-3.64.4-11.21,2.22-14.56.66-1.21,1.46-.47,2.01-.68Z"/>
          <rect class="cls-8" x="654.57" y="545.45" width="4.01" height="2" transform="translate(108.64 1201.78) rotate(-89.87)"/>
          <path class="cls-8" d="M654.57,552.44c.38,1.49,2.84,3.38-1,3,.08-.65-.06-1.34,0-2,.29-.11.62-.78,1-1Z"/>
          <path class="cls-4" d="M259.95,203.79c-.95,4.97-2.06,3.34-5.03,6.46-2.46,2.59-3.53,3.5-5.96,5.53,1.64-4.74,6.23-10.09,10.99-11.99Z"/>
          <path class="cls-4" d="M276.93,186.81c.04,3-1.57,2.32-3,3-3.1,5.25-2.3,2.64-5.99,4.99.51-3.57,3.73-3.92,5.99-4.99.28-.47-.12-1.53.97-2.52.63-.58,1.73-.29,2.03-.48Z"/>
          <path class="cls-4" d="M265.94,196.8c-1.52,1.96.48,2.43-4,4-.43,1.22,1.08,2.47-2,2,.09-.59-.22-1.73.03-1.97.29-.29,1.5.14,1.97-.02.8-2.27.9-3.79,4-4Z"/>
        </g>
        <g>
          <path class="cls-5" d="M551.67,408.59c-9.19.06-17.52,3.03-25.45,4.02-6.13.76-13.62-.55-19.99,0-26.45,2.25-61.87,17.56-86.43,27.46-9.16,3.69-15.96,8.58-23.22,11.82-4.48,1.99-9.38,2.5-14.45,5.46-7.93,4.61-21.73,20.79-26.12,28.82-3.47,6.34-9.76,15.88-12.37,21.6-9.12,19.97-5.59,55.16,4.03,74.37,16.99,33.93,44.62,57.84,72.73,81.56,2.7,2.28,5.34,5.54,8.4,7.64h-1c-17.54-13.12-34.78-26.2-49.95-41.96-.65-.68-1.38-1.34-2-2-6.3-6.73-15.26-17.56-20.21-25.25-4.94-7.68-7.74-16.73-13.76-23.7-2.59-8.38-4.67-17.3-5.99-25.97,2.35-9.15.3-19.55,1-28.97.83-11.21,11.12-30.65,17.99-40.45,3.89-5.55,11.66-10.32,11.98-18.49,35-20.86,87.79-46.03,128.5-52.83,9.26-1.54,18.07-.23,26.84-1.13,4.12-.42,7.39-2.58,10.97-3.01,5.1-.62,13.56-.31,18.51,1.03Z"/>
          <g>
            <path class="cls-7" d="M915.32,407.59c-.11-2.98.07-6,0-8.99l2.01.47,25.65,33.32c7.59,2.32,12.56-8.78,16.29-13.82,42.07,55.12,62.54,92.94,77.92,161.39.4,1.79-1.25,4.03,2,3.45-.01.33.02.67,0,1-.11,1.42-2.87,3.46,1,3,.99,3.85.65,5.49,1,8.99-1.8,1.61-1.29,2.35,1,2,.09.98-.08,2.01,0,3,.26,3.22-1.47,9.93,2,8.99.09.98-.09,2.01,0,3-3.04-.56-1.91,1.52-1.99,3.45-1.23,28.48,2.11,49.75-3.57,79.41-.37,1.93-1.52,3.51,1.57,3.06-.7,3.78-.78,3.68-2,6.99-3.21,8.7-6.27,19-8.75,27.47-5.59,19.13-12.33,39.75-22.37,56.84-.67,1.14-2.5,1.25-2.84,2.34-.32,1.02-1.01,6.16-.02,7.25-6.75,12.59-14.36,24.61-20.98,36.96-5.28,3.23-14.1,16.8-19.01,22.45-73.96,84.94-172.43,124.13-284.7,122.41l-37.33-3.13c-30.76-5.04-60.96-12.13-90.56-21.33-7.18-2.23-12.09-5.4-19.97-6.5-1.26-.18-2.71.13-4,0-2.83-3.25-8.49-2.71-11.99-4-15.78-5.79-30.87-17.9-46.96-21.98-.8-1.87-2.65-2.58-4-4-4.04-4.24-6.99-4.51-12.66-7.82-9.99-5.83-20.8-11.89-30.3-18.15-.99-.65-6.77-5.02-7.06-5.42-3.28-4.53.81-8.8,1.04-12.1.12-1.8-1.6-7.63,1.19-9.28.36-.21,7.58-.96,8.22-.89,1.98.22,11.3,6.85,13.61,5.29,1.39-.93.71-3.69,4.49-3.68,3.7,0,3.06,2.96,4.17,3.19,1.96.4,8.02-1.85,11.31-.08l-4.06-5.44c-6.64-1.65-2.74-5-3.86-8.94-.31-1.11-2.84-.45-3.62-1.52s-.28-3.72-.68-5.34c-.93-3.78-2.49-5.27.81-9.64,4.63-6.13,9.01-5.71,10.23-16.83.55-4.97-2.39-10.02-2.87-13.8-.15-1.19,2.66-1.22,2.05-6.41,2.11-.22,3.2.38,4.47,2.02,2.75,3.54,6.57,9,10.04,11.94,1.97,1.66,6.32,3.34,7.21,4.27.98,1.02,1.1,3.64,1.26,3.76.48.35,2.79-1.22,4.28-.87,1.82.43,4.99,5.42,7.32,6.73,1.9,1.06,4.29.86,5.93,2.07,3.63,2.67,3.41,5.13,10.16,6.82,5.54,1.39,5.59-2.26,7.9,5.31,1.47-1.15,6.87-.02,7.18-.2.41-.24,2.42-4.4,2.17-5.33-1.16-4.27-8.43,1.88-9.98.45,1.29-4.76,3.96-7.88,2.74-13.21-.23-1-1.54-1.96-1.78-3.31-.34-1.9,3.1-.45,1.81-5.71-1.58-6.44-5.02-1.85-7.75-3.18-4.02-1.95-2.84-7.57,3.98-6.55.05.78-.16,2.86,0,3,2.12,1.78,5.68-2.15,0-3-.78-11.29-9.43-12.63-16.49-17.97-1.31-.99-4.44-4.18-1.01-3.99,18.84,9.38,40.14,14.17,57.19,26.74,33.07,10.42,64.43,18.51,99.69,22.19,60.9,6.37,123.28,2.27,176.95-25.85,42.47-22.25,67.15-41.95,92.51-83.32,3.4-5.55,8.96-13.12,11.67-18.3,15.56-29.76,28.45-80.98,30.06-114.79,1.18-24.66-.98-68.69-9.32-91.58-.34-.94-.39-3.75-2.14-2.8-3.48,1.88-1.26,19.1-1.44,23.48-.46,11.37-2.07,28.09-4.5,38.49-.4,1.7-3.55,4.99-4.6,7.42-3.05,7.08-3.53,15.21-6.22,22.75-3.84,10.75-14.7,22.57-21.37,32.58-12.33,18.49-36.79,45.6-54.81,58.08-12.75,8.84-25.33,19.76-39.78,27.16-17.98,9.21-42.38,23.33-60.36,29.55-6.58,2.28-15.48,1.75-22.24,4.23l2.99-8.99c19.5-10.58,26.07-18.82,41.95-32.48,12.76-10.98,27.08-20.3,38.97-32.21,25.38-25.41,46.74-55.96,63.82-87.78,14.54-27.09,28.29-56.22,37.33-85.54,9.98-32.35,4.06-48.61-5.24-79.67.57-.09,1.88.14,1.99,0,.31-.41-2.12-9.59-3.99-7.99-.03-.33.01-.67,0-1Z"/>
            <path class="cls-6" d="M679.55,982.01c-18.86-.29-32.3-.96-50.95-4-3.96-.64-8.05-1.25-11.99-2-23.97-4.54-51.26-11.2-74.15-19.06-.68-.23-.69-1.64-1.5-1.86-3.86-1.05-6.33.63-9.26-4.05,7.88,1.11,12.79,4.27,19.97,6.5,29.6,9.2,59.8,16.3,90.56,21.33l37.33,3.13Z"/>
            <path class="cls-6" d="M955.29,407.59c15.06,21.83,31.84,42.16,44.78,65.62,14.66,26.6,40.29,80.33,39.14,110.21-3.25.58-1.6-1.66-2-3.45-15.38-68.45-35.86-106.27-77.92-161.39-2.64-3.46-4.93-9.12-6.99-11.99.92.59,1.94.81,3,1Z"/>
            <path class="cls-6" d="M1044.2,613.38c2.5,28.16,1.19,58.14-4,85.91-3.09.45-1.94-1.12-1.57-3.06,5.69-29.65,2.35-50.93,3.57-79.41.08-1.92-1.04-4,1.99-3.45Z"/>
            <path class="cls-6" d="M1044.2,610.38c-3.47.94-1.74-5.77-2-8.99,1.67,2.43,1.72,6.13,2,8.99Z"/>
            <path class="cls-6" d="M1040.21,587.41c-3.87.46-1.1-1.58-1-3,1.38.63.76,2.05,1,3Z"/>
            <path class="cls-6" d="M1042.2,598.39c-2.29.35-2.8-.39-1-2,.01.11.83.24,1,2Z"/>
            <path class="cls-12" d="M896.34,345.65c1.64,2.87,3.49,6.38,5.58,8.9,3.33,4.01,17.44,16.12,18.88,19.06.74,1.51.27,3.41,1.08,4.93,3,5.67,9.31,10.01,8.43,17.05-8.12,1.8-8.45-3.07-12.55-6.93-1.25-1.17-3.07-1.23-4.47-2.53-3.12-2.9-4.39-10.23-10.95-9.52-.06,2.72.65,5.42,1.52,7.96,1.35,3.93,4.07,10.12,5.79,14.19,1.29,3.06,2.67,7.24,5.67,8.82.01.33-.03.67,0,1,.36,4.3.97,4.57,2,7.99,9.3,31.06,15.22,47.31,5.24,79.67-9.05,29.32-22.8,58.45-37.33,85.54-17.08,31.82-38.44,62.37-63.82,87.78-11.9,11.91-26.22,21.23-38.97,32.21-15.87,13.67-22.44,21.9-41.95,32.48-15.72,8.53-36.1,16.7-53.95,18.98-1.26.16-3.29-.6-4,1-3.3-.03-6.69-.14-9.99,0-1.78.08-1.89,1-2,1-2.98.1-6.01-.09-8.99,0-3.65.11-7.34-.05-10.99,0-3.29.05-6.73-.23-9.99,0-1.16-1.25-2.52-.95-4-1-3.17-.11-6.86-.21-9.99,0-1.48-1.55-3.33-.81-5-1-.96-.11-2.06.14-3,0-22.52-3.42-51.66-10.17-72.93-17.98-3.58-1.32-7.93-4.78-10.99-5.99,2.06.09,4.06-.4,5.99-1,.98,1.64,3.8,1.14,5.38.91,16.24-2.37,28.4-13.82,47.08-14.09,5.66-.08,3.71-2.53,5.51-4.23,3.96-3.74,10.24-9.06,14.41-12.6,5.59-4.75,14.14-11.99,21.28-13.77,1.92-.48,19.49.88,23.76.87,4.57,0,11.6-1.18,16.03-.98,1.98.09,2.69,2.58,4.96,2.96,2.87.48,5.91-1.39,8.95-1.12s12.52,4.37,14.93,4.13c2.14-.22,3.44-3,5.5-3.65,2.48-.77,4.08.63,5.42.39s1.97-2.59,4.05-2.73c2.52-.17,5.49,3,6.87,2.79.96-.15,4.95-3.23,8.02-3.98,5.42-1.33,9.22.35,12.7-.27,1.98-.35,3.85-2.5,5.43-2.54s3.18,1.7,5.05,1.9c8.11.91,9.72-1.27,16.06-2.65,1.11-.24,2.78.93,4.59.52,2.92-.65,4.16-4.1,5.47-4.86,9.97-5.82,20.61-10.2,27.84-20.87,9.86-14.57,16.7-33.48,23.61-50.32,31.34-76.4,66.16-176.95,59.75-260.43,1.96-.37,2.34,1.54,3,2Z"/>
            <path class="cls-1" d="M945.3,397.6c-.1.99.46,1.36,1,2,.29.34.67.69,1,1-.85,4.31,2.88,4.02,4,4.99.33.29.76.66,1,1,2.06,2.87,4.35,8.52,6.99,11.99-3.73,5.04-8.7,16.14-16.29,13.82l-25.65-33.32-2.01-.47c.07,2.98-.12,6.01,0,8.99-3-1.58-4.38-5.76-5.67-8.82-1.72-4.06-4.45-10.26-5.79-14.19-.87-2.54-1.59-5.24-1.52-7.96,6.56-.72,7.83,6.61,10.95,9.52,1.4,1.3,3.22,1.35,4.47,2.53,4.1,3.86,4.44,8.73,12.55,6.93.88-7.04-5.43-11.38-8.43-17.05-.81-1.52-.34-3.43-1.08-4.93-1.44-2.94-15.55-15.05-18.88-19.06-2.09-2.52-3.95-6.03-5.58-8.9,8.6,5.99,44.2,43.09,48.95,51.95Z"/>
            <path class="cls-6" d="M951.29,405.59c-1.12-.97-4.84-.69-4-4.99,1.58,1.48,3.91,2.15,4,4.99Z"/>
            <path class="cls-6" d="M946.3,399.6c-.54-.63-1.1-1.01-1-2,.31.58,1.07,1.08,1,2Z"/>
            <path class="cls-6" d="M1038.21,706.29l-2.42,18.06c-7.49,28.02-17.94,50.46-31.55,75.84-.99-1.08-.3-6.23.02-7.25.34-1.1,2.17-1.2,2.84-2.34,10.04-17.09,16.77-37.71,22.37-56.84,2.48-8.47,5.54-18.77,8.75-27.47Z"/>
            <path class="cls-6" d="M740.49,734.26l-2.99,8.99c6.76-2.48,15.65-1.95,22.24-4.23,17.98-6.23,42.37-20.34,60.36-29.55,14.45-7.4,27.02-18.32,39.78-27.16,18.01-12.49,42.48-39.59,54.81-58.08,6.67-10,17.53-21.82,21.37-32.58,2.69-7.54,3.17-15.67,6.22-22.75,1.05-2.44,4.2-5.72,4.6-7.42,2.42-10.4,4.03-27.12,4.5-38.49.18-4.38-2.05-21.6,1.44-23.48,1.75-.94,1.8,1.86,2.14,2.8,8.34,22.89,10.5,66.93,9.32,91.58-1.61,33.81-14.5,85.03-30.06,114.79-2.71,5.18-8.27,12.75-11.67,18.3-25.36,41.37-50.04,61.07-92.51,83.32-53.66,28.11-116.05,32.21-176.95,25.85-35.26-3.69-66.62-11.77-99.69-22.19-17.05-12.57-38.34-17.36-57.19-26.74-3.43-.18-.3,3,1.01,3.99,7.06,5.34,15.72,6.68,16.49,17.97,5.69.85,2.13,4.78,0,3-.17-.14.05-2.22,0-3-6.81-1.02-7.99,4.6-3.98,6.55,2.72,1.32,6.17-3.26,7.75,3.18,1.29,5.26-2.15,3.81-1.81,5.71.24,1.36,1.55,2.31,1.78,3.31,1.22,5.33-1.44,8.45-2.74,13.21,1.55,1.43,8.82-4.72,9.98-.45.25.93-1.76,5.09-2.17,5.33-.31.18-5.71-.95-7.18.2-2.3-7.57-2.36-3.92-7.9-5.31-6.75-1.69-6.54-4.15-10.16-6.82-1.63-1.21-4.02-1.01-5.93-2.07-2.33-1.3-5.5-6.29-7.32-6.73-1.49-.35-3.81,1.22-4.28.87-.16-.12-.28-2.74-1.26-3.76-.89-.93-5.25-2.6-7.21-4.27-3.47-2.94-7.29-8.4-10.04-11.94-1.27-1.64-2.37-2.24-4.47-2.02-.68-5.69-4.87-4.39-7.85-8.64-1.11-1.58-4.54-10.18-4.92-12.08-1.57-7.98,4.68-6.11,5.62-10.99,1.04-5.42-7.97-11.48-11.92-14.66-22.21-17.85-44.55-34.78-65.4-54.48-16.03-15.15-33.86-34.29-45.85-53.05-2.62-4.1-10.37-17.33-7.56-21.38,1.26-1.74,3.7,1.46,4.42,2.55,19.37,29.42,41.32,53.03,67.52,76.84-.13,2.02,1.04,2.91,3,3,.7.79,1.52,1.45,2,2,2.49,2.89,3.19,2.51,5,4,2.55,2.1,5.87,4.25,7.99,5.99,7.4,6.1,17.5,13.15,26.43,18.03,41.77,22.84,71.93,8.89,114.66,14.21,7.56.94,13.46,5.67,20.41,5.68,2.47,0,3.74-2.18,6.87-2.08,1.9.06,1.02,2.13,2.93,2.24,2.2.12,4.28-.99,6.04-.91,5.77.24,29.29,5.43,31.98.81,1.18-2.03.22-5.65.49-8.01.94.14,2.03-.11,3,0-.68,4.3,3.8,1.08,5,1,3.13-.21,6.82-.11,9.99,0-.61,4.26,3.08,1.06,4,1,3.26-.23,6.7.05,9.99,0,.09.56-.17,1.87,0,2,.41.31,9.4.25,10.37.02,1.17-.28.54-1.09.63-2.02,2.99-.09,6.01.1,8.99,0,1.61,1.8,2.35,1.29,2-1,3.3-.14,6.69-.03,9.99,0,.64,0,2.39,1.95,4-1,17.85-2.28,38.22-10.45,53.95-18.98Z"/>
            <path class="cls-10" d="M304.9,579.41c.28.53.77,1.49,1,2-1.11,3.15,1.54,6.12,2,7.99.33,1.33.67,2.66,1,4,2.88,11.72,10.5,30.77,17.99,40.45,1.99,2.57,4.96,3.91,6.84,6.15,2.7,3.21,4.13,8.37,6.57,11.41,14.34,17.8,35.82,31.76,53.17,46.23,9.65,8.05,17.49,18.57,29.4,24.05,2.37,1.09,6.19.46,7.98,3.01,6.16,8.75-9.87,2.7-13.27,1.28-2.65-1.1-5.89-5.65-8.78-2.71-2.12-1.75-5.44-3.89-7.99-5.99-.17-2.83-2.24-4.26-5-4-.47-.55-1.3-1.21-2-2-1.56-1.75-1.3-1.46-3-3-26.2-23.81-48.15-47.42-67.52-76.84-.72-1.09-3.15-4.28-4.42-2.55-2.82,4.05,4.94,17.28,7.56,21.38,11.99,18.77,29.82,37.9,45.85,53.05,20.85,19.7,43.19,36.64,65.4,54.48,3.95,3.18,12.96,9.24,11.92,14.66-.94,4.88-7.19,3.01-5.62,10.99.37,1.9,3.81,10.51,4.92,12.08,2.98,4.25,7.17,2.95,7.85,8.64.62,5.19-2.2,5.22-2.05,6.41.48,3.78,3.41,8.84,2.87,13.8-1.22,11.12-5.6,10.7-10.23,16.83-3.3,4.37-1.74,5.86-.81,9.64.4,1.62-.12,4.24.68,5.34s3.31.42,3.62,1.52c1.12,3.94-2.78,7.29,3.86,8.94l4.06,5.44c-3.29-1.77-9.35.49-11.31.08-1.11-.23-.46-3.18-4.17-3.19-3.78,0-3.1,2.75-4.49,3.68-2.31,1.56-11.63-5.07-13.61-5.29-.64-.07-7.86.68-8.22.89-2.79,1.65-1.06,7.48-1.19,9.28-.23,3.31-4.32,7.58-1.04,12.1.29.41,6.07,4.77,7.06,5.42l-1,1c-58.87-37.4-125.21-91.73-161.85-151.85,4.86-.03,9.52,4.3,12.93,7.55,2,1.91,2.74,6.67,8.05,6.43-2.65-3.2,1.19-7.74,1.02-8.47-.24-1.01-2.94-1.1-3.08-2.17s1.12-2.57.65-4.38-3.38-4.89-4.35-7.68c-5.86-16.87-11.11-34.17-8.44-51.95,1.22-8.16,3.29-18.33,4-25.92.17-1.77-2.1-3.57-1.78-6.73.52-5.24,5.8-13.47,7.31-18.76s1.34-13.09,4.64-18.33c1.1-1.75,5-3.55,5.1-4.15.32-1.74-1.34-3.89-.92-5.62.45-1.87,6.22-5.78,7.69-8.34s6.23-15.11,7.14-18.33l5.99,2Z"/>
            <path class="cls-6" d="M464.75,921.07c-1.29-.12-2.74.18-4,0-.15-.27.37-1.25-.17-1.8-.82-.85-14.78-7.41-17.49-9.01-7.56-4.47-15.4-9.77-22.31-14.16l1-1c9.5,6.26,20.31,12.33,30.3,18.15,5.67,3.31,8.62,3.58,12.66,7.82Z"/>
            <path class="cls-1" d="M915.32,408.59c1.87-1.6,4.29,7.58,3.99,7.99-.11.15-1.42-.08-1.99,0-1.02-3.42-1.64-3.69-2-7.99Z"/>
            <path class="cls-12" d="M366.85,464.53c-.32,8.17-8.09,12.93-11.98,18.49-6.87,9.81-17.15,29.24-17.99,40.45-1.98,2.92-2.86,8-3.03,11.45-.24,4.75,1.27,12.49,2.03,17.52,1.32,8.68,3.41,17.6,5.99,25.97,4.82,15.6,14.4,30.16,25.98,41.96-2.35,4.77-6.39-1.47-8.65-2.83-2.46-1.48-5.67-2.33-7.85-4.14-2.55-2.12-3.9-6.51-6.09-7.9-7.98-5.08-16.13-4.08-23.37-13.6-5.08-6.68-7.26-14.53-10.56-21.4-3.04-6.32-8.17-11.46-8.47-19.02-.81-.58-6.27,1.37-7.32,2.1-.72.5-9.5,11.04-10.61,12.58-8.74,12.13-17.29,26.93-24.93,39.8-9.98,16.81-22.55,54.26-21.96,73.72.14,4.66,5.54,15.45,2.49,19.71-.82,1.15-3.35.74-3.56.94-.41.38,1.9,9.28,2,10.98-5.44-10.27-10.95-19.59-14.35-31.3-10.37-35.69-6.08-53.29,9.36-85.58.52-1.08,1.41-3.07,2-4,.56-.87,2.8-1.43,2-4,25.52-36.34,58.77-75.25,95.91-99.9,1.74-1.16,4.5-1.78,4-4,3.38-1.39,3.81-.69,5-4,5.13-2.85,10.9-6.05,14.99-9.99.41-.23.67-.79,1-1,1.61-1.02,6.78-2.28,7.99-3Z"/>
            <path class="cls-7" d="M308.9,593.4l6.39,7.05c5.75,19.67,22.32,36.01,41.74,43.22,6.44,2.39,16.56,2.28,23.07,3.91,2.03.51,6.25,3.98,9.02,4.97,2.08.74,9.51,3.09,8.69-.69-.14-.66-8.06-7.86-9.55-9.46s-2.93-3.11-4.06-4.34c-2.49-2.73-5.47-5.04-6.36-8.69,15.17,15.76,32.41,28.83,49.95,41.96,3.9,2.92,7.92,6.06,11.99,8.99,7.16,5.16,21.52,13.48,26.97,18.98,7.22,7.29,9.35,5.71,18.18,10.09,14.8,7.35,33.75,19.76,50.55,24.58,3.43.99,6.59,1.65,10.2,1.29,21.27,7.81,50.41,14.56,72.93,17.98-.26,2.36.7,5.98-.49,8.01-2.69,4.61-26.21-.58-31.98-.81-1.76-.07-3.84,1.04-6.04.91-1.91-.11-1.03-2.18-2.93-2.24-3.12-.1-4.39,2.09-6.87,2.08-6.95-.01-12.85-4.74-20.41-5.68-42.73-5.32-72.9,8.63-114.66-14.21-8.92-4.88-19.02-11.93-26.43-18.03,2.89-2.94,6.13,1.61,8.78,2.71,3.4,1.42,19.43,7.47,13.27-1.28-1.79-2.55-5.61-1.92-7.98-3.01-11.91-5.48-19.75-15.99-29.4-24.05-17.34-14.48-38.82-28.43-53.17-46.23-2.45-3.03-3.87-8.2-6.57-11.41-1.88-2.23-4.85-3.58-6.84-6.15-7.49-9.69-15.11-28.73-17.99-40.45Z"/>
            <path class="cls-6" d="M479.74,703.29c.36.3.64.72,1,1,16.1,12.64,35.54,17.65,53.95,24.97,3.06,1.22,7.4,4.68,10.99,5.99-3.61.36-6.77-.31-10.2-1.29-16.8-4.83-35.75-17.24-50.55-24.58-8.83-4.38-10.96-2.8-18.18-10.09,3.12.83,6.05,2.21,9,3.48,1.04.45,3.34,2.58,3.98.51Z"/>
            <path class="cls-7" d="M661.57,755.24c-.09.93.54,1.74-.63,2.02-.96.23-9.95.29-10.37-.02-.16-.12.1-1.44,0-2,3.65-.05,7.34.11,10.99,0Z"/>
            <path class="cls-7" d="M626.6,754.24c-1.19.08-5.68,3.3-5-1,1.66.19,3.51-.56,5,1Z"/>
            <path class="cls-7" d="M640.59,755.24c-.91.06-4.6,3.26-4-1,1.48.05,2.83-.25,4,1Z"/>
            <path class="cls-7" d="M686.54,753.24c-1.6,2.95-3.35,1-4,1,.71-1.6,2.73-.84,4-1Z"/>
            <path class="cls-7" d="M672.56,754.24c.35,2.29-.39,2.8-2,1,.11,0,.22-.92,2-1Z"/>
            <path class="cls-7" d="M400.81,717.27c-1.8-1.49-2.51-1.11-5-4,2.76-.27,4.82,1.17,5,4Z"/>
            <path class="cls-7" d="M393.82,711.28c-1.96-.08-3.13-.97-3-3,1.7,1.54,1.44,1.25,3,3Z"/>
            <path class="cls-1" d="M238.97,711.28c-.1-1.7-2.41-10.59-2-10.98.21-.2,2.74.22,3.56-.94,3.05-4.27-2.35-15.05-2.49-19.71-.59-19.45,11.98-56.91,21.96-73.72,7.64-12.87,16.19-27.66,24.93-39.8,1.11-1.54,9.89-12.08,10.61-12.58,1.06-.73,6.51-2.68,7.32-2.1.3,7.56,5.43,12.7,8.47,19.02,3.3,6.88,5.49,14.72,10.56,21.4,7.24,9.52,15.38,8.52,23.37,13.6,2.19,1.39,3.54,5.78,6.09,7.9,2.18,1.81,5.39,2.66,7.85,4.14,2.26,1.36,6.3,7.6,8.65,2.83,2.54,2.59,4.59,5.43,7.99,6.99.62.66,1.35,1.32,2,2,.89,3.65,3.87,5.97,6.36,8.69,1.13,1.24,2.58,2.75,4.06,4.34s9.41,8.81,9.55,9.46c.82,3.78-6.61,1.43-8.69.69-2.77-.99-6.99-4.46-9.02-4.97-6.51-1.62-16.63-1.52-23.07-3.91-19.42-7.21-35.99-23.55-41.74-43.22l-6.39-7.05c-.33-1.33-.67-2.66-1-4,2.68-3.12-1.34-6.51-2-7.99-.23-.51-.72-1.47-1-2-.81-1.53-2.73-10.04-5.53-6.02-.89,1.29-.19,3.02-.47,4.02-.91,3.23-5.66,15.77-7.14,18.33s-7.24,6.47-7.69,8.34c-.42,1.73,1.24,3.88.92,5.62-.11.6-4.01,2.4-5.1,4.15-3.3,5.24-3.07,12.84-4.64,18.33s-6.79,13.52-7.31,18.76c-.31,3.16,1.95,4.96,1.78,6.73-.71,7.59-2.78,17.76-4,25.92-2.67,17.78,2.58,35.08,8.44,51.95.97,2.79,3.9,5.91,4.35,7.68s-.8,3.27-.65,4.38,2.84,1.16,3.08,2.17c.17.72-3.67,5.26-1.02,8.47-5.31.25-6.05-4.51-8.05-6.43-3.41-3.26-8.07-7.59-12.93-7.55-.53-.87-.74-1.56-1-2,2.53-2.64.06-1.59-1-2-2.36-4.23-2.31-3.99-5-6.99-7.54-8.43-8.09-12.73-12.99-21.98Z"/>
            <path class="cls-7" d="M304.9,579.41l-5.99-2c.28-1-.43-2.73.47-4.02,2.8-4.03,4.72,4.49,5.53,6.02Z"/>
            <path class="cls-7" d="M307.9,589.4c-.46-1.87-3.11-4.84-2-7.99.66,1.48,4.68,4.87,2,7.99Z"/>
            <path class="cls-10" d="M251.96,733.26c2.69,3,2.63,2.76,5,6.99,1.06.41,3.53-.64,1,2-.44-.74-.67-1.41-1-2-3.26-1.27-4.86-3.32-5-6.99Z"/>
            <path class="cls-7" d="M375.84,627.37c-3.41-1.56-5.45-4.4-7.99-6.99-11.57-11.8-21.15-26.35-25.98-41.96,6.02,6.97,8.82,16.02,13.76,23.7,4.95,7.69,13.91,18.52,20.21,25.25Z"/>
            <path class="cls-2" d="M335.88,552.44c-.77-5.03-2.27-12.76-2.03-17.52.17-3.45,1.05-8.53,3.03-11.45-.7,9.42,1.35,19.82-1,28.97Z"/>
            <path class="cls-5" d="M441.77,679.31c10.77,9.53,27.85,15.44,37.96,23.98-.65,2.07-2.95-.07-3.98-.51-2.95-1.27-5.89-2.66-9-3.48-5.45-5.5-19.81-13.82-26.97-18.98l2-1Z"/>
            <path class="cls-2" d="M429.79,671.32c2.41,1.64,4.67,7.27,5,2,3.25,2,4.35,3.65,6.99,5.99l-2,1c-4.07-2.93-8.09-6.08-11.99-8.99h1c.33,0,.67,0,1,0Z"/>
          </g>
          <path class="cls-5" d="M429.79,671.32c2.21.06,3.28.94,5,2-.32,5.27-2.59-.35-5-2Z"/>
          <g>
            <path class="cls-13" d="M15.18,554.44c-.77,5.73-1.36,10.39-2.93,14.74-1,2.76-.2,6.73-3.06,8.24.22-2.29-.2-4.7,0-6.99.03-.33-.02-.67,0-1l5.99-14.98Z"/>
            <path class="cls-14" d="M657.57,447.55l-9.99-7.99c-4.01-9.97-25.36-40.27-34.03-46.39-2.03-1.43-5.34-3.21-8-4.99-14.98-10.01-28.32-17.61-46.49-21.44-27.8-5.87-56.77-10.19-85.56-7.87-3.59.29-10.31,2.2-14.51,2.53-1.45.12-4.87-1.11-5.22-.75-.3.31.68,2.32-.65,3.04-2.38,1.29-8.4,2.33-11.86,3.94-1.57.73-8.04,4.11-8.81,4.92-1.52,1.61-.19,5.01-3.27,6.97s-10.46.66-14.72,3.26c-1.96,1.19-1.62,3.36-3.1,4.89-.34.35-6.89,4.97-7.87,5.6-1.21.79-3.42.13-4.79,1.73-1.94,2.28,0,6.82-1.32,8.67-.94,1.31-4.92.52-6.08,2.91-.95,1.96-.04,4-.42,5.39-.12.43-4.75,1.66-6.27,5.89-.85,2.35-.4,5.46-.99,6.51-.29.51-2.9,1.16-3.86,2.64-1.1,1.7-4.3,9.14-6.18,10.29-1.99,1.22-5.29.06-6.48,5-.88,3.64.87,4.33-1.58,7.29-2.13,2.57,3.29,2.91,5.4,2.55.69-.12,9.54-5.11,7.92-1.1-.47,1.15-6.8,5-8.3,5.69-6.55,3.01-17.12,1.7-11.67,10.81-.32.2-.59.77-1,1-7.63-2.18-8.91.32-12.34,5.65-1.28,1.98-1.25.43-2.64,4.34-1.18,3.3-1.61,2.61-5,4-2.51,1.03-4.8-.02-4,4-37.14,24.65-70.38,63.56-95.91,99.9-2.26.17-3.44,1.15-2.99,3.48l.99.51c-.59.93-1.48,2.92-2,4l-5.97,5.73c-6.55,9.29-7.76,11.67-11.68,22.07-2.36,6.25-10.23,19.76-11.15,24.9-1.2,6.7,1.84,16.07.88,22.77-1.08,7.55-4.4,17.73-5,24.98-.51,6.17,1.43,24.76,3.02,30.84.73,2.81,2.72,4.77,3.48,8.51,2.56,12.68,5.51,23.75,10.71,35.25,2.14,4.73,6.57,5.66,7.46,7.04,6.54,10.21,9.29,21.05,17.29,31.16,1.27,1.6,1.31,4.48,2.44,5.56,1.22,1.17,3.49.89,5.08,1.92,3.79,2.46,5.91,8.25,7.65,10.83.39.57,3.07,1.02,4.32,2.17,1.62,1.49,1.69,3.59,2.75,4.75,4.01,4.36,11.72,5.67,15.16,13.31,1.63,3.61,2.72,7.79,4.64,11.34s7.42,5.58,8.96,9.02c1.91,4.26,2.43,9.99,5.45,14.53,4.08,6.14,10.81,8.93,14.84,13.13s2.06,7.79,7.59,10.89l-2.48,5.98c-4.04-8.13-6.97-2.21-9.48-3.44-3.26-1.6-4.5-7.15-6.46-8.61-2.84-2.11-12.01-3.98-14.52-5.46-.44-.26-4.86-7.23-3.8-1.17.85,4.85,4.02,4.92,7.28,7.72,12.07,10.38,27.15,19.72,41.75,26.14,3.54,1.56,8.87.49,6.19,5.8-1.39,2.76-12.25,5.24-15.48,4,.03,4.88,9.01.86,8.98,6.99-6.55-.8-11.93-4.6-19.48-3.98-7.87.64-20,3.08-20.4,12.6-.23,5.42,3.58,4.27,6.46,7.32,2.22,2.36,4.18,7.37,6.72,9.75,1.34,1.26,4.34.34,3.71,3.28-11.75-.88-23.49-.78-34.97-1-1.33-.03-2.67-.01-4,0,.57-4.18-.51-2.32-2.35-3.1-3.49-1.49-6.84-1.35-9.68-2.35-7.41-2.61-6.36-3.66-15.01-4.95-.67-.1-10.93-6.1-11.44-6.55-.82-.74-1.33-3.25-2.45-4.56-3.97-4.6-8.32-8.87-12.56-13.44-1.23-1.33-6.72-5.01-6.51-6.5,3.11-3.49,5.66-8.75,11.04-7.5,1.6-1.28-4.69-3.07-1.02-5.52.65-.43,14.39-2.57,15.43-2.46,5.2.54,13.87,4.09,19.12,4.94,6.24,1.01,13.06-.57,18.85.14,7.23.89,17.61,7.11,25.51,8.45,5.22.89,16.42,2.5,21.03.91,1.03-.36,2.69-.25,1.99-1.94-1.63-3.93-8.52-3.32-11.19-4.55-1.15-.53-1.23-2.2-2.44-2.76-6.92-3.22-21.77-7.89-27.07-11.83-2.07-1.54-2.18-3.74-3.19-4.64-11.09-9.94-24.32-15.94-34.03-28.18-2.32-2.92-4.3-8.82-5.93-11.05-1.26-1.73-4.81-2.12-6.12-3.87-2.65-3.56-2.47-11.33-3.43-13.51-.53-1.2-15.96-19.26-17.11-19.89-3.57-1.96-5.25-2.6-9-4.99-3.43-2.19-13.44-7.51-14.8-11.17-.77-2.07-.27-4.08-1.07-5.94-.61-1.42-3.21-2.52-4.03-4.96s-.08-5.16-1.54-7.45c-1.34-2.09-4.59-2.2-5.4-3.59s-.25-3.52-.99-5.01c-.38-.76-6.69-6.27-7.02-6.94-.98-2.01-.29-5.47-.9-8.1-.69-2.97-3.43-5.31-4.11-7.88-2.42-9.06-2.11-9.44-6.23-17.71-1.29-2.59-.59-7.46-1.73-9.3-.6-.96-2.51-.96-3.28-2.71-2.37-5.38.92-9.25.65-10.64-.19-.99-2.1-1.85-2.63-3.37-.26-.74-1.1-6.16-1-6.65.26-1.32,2.47-2.16,2.68-3.24.18-.94-1.86-2.71-2.02-4.85-.23-3.14,2.05-5.16,2.18-8.01.14-3.16-1.74-6.13-1.04-9.93,1.23-6.67.45-2.92.07-7.98-.24-3.2,2.54-8.14,2.72-10.22.1-1.18-1.48-2.39-1.77-3.88-1.18-6.04,1.28-3.59,3.49-5.35,2.02-1.61.36-10.74,1.9-15.12,1.78-5.05,2.58-7.03,4.21-12.77.22-.76,6.35-13.52,6.82-14.15,1.92-2.55,4.89-1.96,6.25-3.25,2.43-2.28,2.92-10.29,9.24-8.75,1.45-2.81-2.63-2.79-2-4.47,1.07-2.82,5.3-2.03,6.1-3.11,1.34-1.79.42-6.53,1.04-7.26.19-.22,2.54-.42,3.9-1.57,3.24-2.74,4.72-7.17,6.38-8.62,1.48-1.3,4.31-1.14,5.3-2.21.37-.4,4.32-8.51,4.79-9.7.61-1.55.14-4.16.6-4.86.4-.6,2.98-.62,4.07-1.23.7-.39.77-1.52,1.58-1.82,2.45-.91,9.71-.87,10.1-1.19s.87-7.39,3.64-9.85c2.03-1.8,5.77-1.72,7.56-4.52,1.24-1.95-.52-3.38.76-5.06,1.15-1.53,3.67-1.68,4.82-2.77,1.35-1.28,7.25-7.76,8.33-9.14,1.29-1.65,1.24-4.31,2.19-5.31,1.31-1.38,5.17-.27,3.76-3.72-.62-1.53-4-.75-3-3.49,6.17,1.03,4.56-3.89,6.99-7.51,2.1-3.13,5.42-3.12,7.08-4.95,1.09-1.2,4.02-7.16,5.16-8.3.82-.82,2.73-.65,3.52-1.45,1.24-1.26,1.22-5.27,2.46-6.54,2.89-2.95,5.21,1.86,1.77-7.22,10.81,1.99,6.27-13.62,8.2-20.28.61-2.09,3.98-3.3,4.59-5.4.79-2.7-.16-6.01.67-9.32,1.41-5.64,8.74-14.4,13.94-17.03,7.42-3.75,14.52-8.9,21.64-14.35,1.12-.86,1.62-3.03,2.14-3.33,1.13-.64,3.16.06,5.34-1.16,3.61-2.03,4.35-8.59,6.41-9.57s4.29-.09,6.31-.68c2.23-.66,14.61-7.06,17.39-8.58,3.12-1.71,4.1-5.02,5.29-5.7,1.61-.92,3.93-.17,5.96-1.04,6.34-2.72,15.12-10.31,22.07-12.9,4.95-1.84,13.92-.89,16.93-5.54.64.09,1.36-.1,2,0,6.29.96,4.45-.94,8.71-1.78,35.63-6.96,74.94-7.53,110.61-.16,12.42,2.57,29.92,6.11,41.75,10.2,1.66.57,19.31,9.54,20.51,10.46,3.23,2.49,5.67,7.91,8.24,9.73,2.12,1.5,4.48.99,5.72,1.78s2.48,5.48,6.62,4.81c.29-.05,3.35-4.41,3.4-4.7.23-1.23-.94-3.2-.86-4.87.1-2.03,1.28-4.49,1.14-5.86-.06-.55-3-.87-3.05-4.23-.03-1.98,3.28-6.1,1.97-7.38-.28-.27-2.47.34-2.86-.08-.46-.5.19-3.33-.59-4.96-.69-1.43-3.42-1.61-3.6-2.64-.25-1.41.94-3.2.8-4.7-.29-2.99-4.05-8.88-3.68-14.06.18-2.55,2.94-4.22,2.8-5.87-.2-2.33-3.58-3.53-3.86-7.14-.24-3.11,4.68.46,6-1.55,2.23-3.41-3.48-3.48-3.89-4.05-1.25-1.76,1.46-4.97,1.62-6.52.2-1.92-1.17-4.21-.72-6.83.39-2.3,3.07-3.21,3.05-5.01-.02-1.37-2.77-3.47-2.03-4.49.1-.14,1.95-.27,3.01-1.46,4.77-5.33-.91-7.11-1.7-11.18-.06-.31.02-6.1.1-6.41.68-2.47,3.55-2.82,3.6-3.54.11-1.48-1.95-5.09-1.02-7.4,25.44,24.55,32.38,45.79,37.03,80.35,2.03,15.1.87,16-1.82,30.28-2.05,10.85,1.64,19.05,1.83,29.7.1,5.55-3.08,8.46-3.06,10.01.02,1.29,1.9,2.74,2.1,4.99.45,5.08-1.09,14.7-1.1,20.49ZM381.09,422.55c0-.68-.55-1.23-1.23-1.23s-1.23.55-1.23,1.23.55,1.23,1.23,1.23,1.23-.55,1.23-1.23Z"/>
            <path class="cls-11" d="M418.8,361.63c-3.01,4.66-11.98,3.7-16.93,5.54-6.94,2.59-15.72,10.18-22.07,12.9-2.02.87-4.35.11-5.96,1.04-1.19.68-2.17,3.99-5.29,5.7-2.78,1.52-15.17,7.92-17.39,8.58-2.02.6-4.33-.27-6.31.68s-2.8,7.55-6.41,9.57c-2.18,1.22-4.2.52-5.34,1.16-.52.3-1.02,2.47-2.14,3.33-7.12,5.45-14.21,10.6-21.64,14.35-5.2,2.63-12.53,11.39-13.94,17.03-.83,3.3.11,6.62-.67,9.32-.61,2.1-3.99,3.31-4.59,5.4-1.93,6.66,2.61,22.28-8.2,20.28,3.44,9.08,1.12,4.27-1.77,7.22-1.24,1.27-1.21,5.29-2.46,6.54-.79.8-2.7.62-3.52,1.45-1.14,1.14-4.07,7.1-5.16,8.3-1.66,1.83-4.98,1.82-7.08,4.95-2.43,3.61-.82,8.54-6.99,7.51-1,2.74,2.37,1.97,3,3.49,1.41,3.45-2.45,2.33-3.76,3.72-.95,1-.9,3.66-2.19,5.31-1.08,1.38-6.98,7.87-8.33,9.14-1.15,1.09-3.66,1.24-4.82,2.77-1.28,1.69.49,3.12-.76,5.06-1.78,2.8-5.52,2.72-7.56,4.52-2.77,2.46-3.23,9.51-3.64,9.85s-7.65.28-10.1,1.19c-.81.3-.88,1.43-1.58,1.82-1.09.61-3.67.63-4.07,1.23-.47.7,0,3.31-.6,4.86-.47,1.2-4.42,9.31-4.79,9.7-1,1.07-3.82.91-5.3,2.21-1.66,1.46-3.13,5.88-6.38,8.62-1.36,1.15-3.71,1.35-3.9,1.57-.62.73.3,5.46-1.04,7.26-.8,1.07-5.03.29-6.1,3.11-.64,1.68,3.45,1.66,2,4.47-6.32-1.54-6.81,6.47-9.24,8.75-1.37,1.28-4.33.69-6.25,3.25-.47.63-6.61,13.39-6.82,14.15-1.63,5.74-2.43,7.72-4.21,12.77-1.54,4.38.12,13.51-1.9,15.12-2.21,1.76-4.67-.69-3.49,5.35.29,1.5,1.87,2.7,1.77,3.88-.18,2.08-2.96,7.02-2.72,10.22.38,5.06,1.17,1.32-.07,7.98-.7,3.79,1.18,6.77,1.04,9.93-.13,2.85-2.41,4.86-2.18,8.01.16,2.14,2.2,3.91,2.02,4.85-.21,1.08-2.41,1.93-2.68,3.24-.1.49.75,5.92,1,6.65.53,1.52,2.43,2.38,2.63,3.37.27,1.4-3.02,5.26-.65,10.64.77,1.75,2.68,1.75,3.28,2.71,1.14,1.83.44,6.71,1.73,9.3,4.12,8.27,3.81,8.65,6.23,17.71.68,2.56,3.42,4.91,4.11,7.88.61,2.63-.08,6.09.9,8.1.33.67,6.64,6.18,7.02,6.94.74,1.5.19,3.64.99,5.01s4.06,1.5,5.4,3.59c1.47,2.29.74,5.06,1.54,7.45s3.42,3.54,4.03,4.96c.79,1.85.3,3.87,1.07,5.94,1.36,3.66,11.37,8.98,14.8,11.17,3.74,2.39,5.43,3.03,9,4.99,1.15.63,16.58,18.69,17.11,19.89.97,2.18.78,9.95,3.43,13.51,1.31,1.75,4.86,2.14,6.12,3.87,1.63,2.24,3.61,8.13,5.93,11.05,9.71,12.24,22.94,18.23,34.03,28.18,1.01.91,1.12,3.1,3.19,4.64,5.3,3.94,20.14,8.61,27.07,11.83,1.21.56,1.29,2.24,2.44,2.76,2.67,1.22,9.56.61,11.19,4.55.7,1.69-.95,1.59-1.99,1.94-4.61,1.59-15.81-.02-21.03-.91-7.9-1.34-18.27-7.56-25.51-8.45-5.79-.71-12.6.87-18.85-.14-5.25-.85-13.92-4.4-19.12-4.94-1.04-.11-14.78,2.03-15.43,2.46-3.67,2.44,2.62,4.23,1.02,5.52-5.38-1.24-7.92,4.01-11.04,7.5-.21,1.49,5.28,5.17,6.51,6.5,4.24,4.57,8.59,8.84,12.56,13.44,1.13,1.31,1.63,3.82,2.45,4.56.5.45,10.77,6.45,11.44,6.55,8.65,1.29,7.6,2.34,15.01,4.95,2.84,1,6.19.86,9.68,2.35,1.84.78,2.93-1.08,2.35,3.1-7.39.06-8.16-2.16-13.54-3.94-4.1-1.36-8.47-.98-12.87-2.12-9.89-2.57-20.35-8.17-29.54-10.92.54-3.74-5.81-3.39-6.77-4.23-1.65-1.43-1.9-4.09-6.68-6.81-9.3-5.28-15.82-7.03-25.19-13.78-1.74-1.25-3.85-1.03-5.89-3.1-3.01-3.05-1.7-6.29-2.92-8.07-.7-1.03-2.97-.98-4.05-1.94-1.49-1.33-4.66-6.22-5.88-7.09-2.24-1.59-5.95-.82-7.4-5.67-1.01-3.38,1.28-5.01,1.76-7.81.28-1.64-.24-7.15.06-7.43.34-.32,7.53-.38,9.3-1.19,2.11-.97,2.06-5.27,4.7-6.34,1.82-.74,4.87,1.19,7.27.57,1.08-.28,1.03-2.58,2.3-2.96.47-.14,8.44.79,9.84.96,5.4.69,11.14,2.88,16.31,5.62,2.46,1.3,6.32,4.64,8.21,5.82,1.51.94,5.73.6,8.88,2.11,2.81,1.34,5.87,5.94,6.29,6.18,1.25.71,3.56-.18,5.18.35.76.25,9.18,5.44,10.86,6.14,12.3,5.1,25.63,7.48,38.29,11.64,2.24.82,1.66-3.2,1.25-4.27-1.77-4.66-18.17-8.9-23.06-11.68-17.55-9.98-32.67-25.79-50.01-36.12-3.73-2.23-6.23-2.91-10.04-5.43-11.46-7.58-36.25-37.77-43.94-50.47-5.8-9.58-8.74-19.15-13.22-28.75-3.41-7.32-6.17-7.98-8.19-17.8-2.97-14.41-8.59-32.57-14.14-46-1.05-2.54-2.04-17.13-1.97-20.58s2.91-9.6,2.86-11.11c-.1-2.72-3.39-11.66-2.95-15.94.24-2.29,3.58-9.56,3.93-12.08.78-5.51-.45-12.08.15-17.83,1.91-18.26,12.65-45.4,21-61.96.54-1.08,2.27-1.15,2.83-2.37,1.67-3.62,2.4-9.91,4.63-14.1,2.5-4.7,9.36-10.55,10.86-13.11.99-1.7.38-4.33,1.48-6.27.58-1.03,5.05-4.71,6.46-6.77,7.73-11.34,12.74-19.5,21.59-30.36,2.82-3.47,5.24-9.84,8.62-12.62.7-.57,2.85-.44,3.23-1.01.62-.95-.4-3.34.32-4.68.49-.9,4.81-1.83,5.78-2.75,1.08-1.03.76-2.84,1.21-3.24,1.58-1.41,1.18.99,5.04-3.94.42-.53,7.69-4.54,10.75-7.75s12.27-13.47,15.45-15.52c7.81-5.02,4.76-3.5,10.49-9.5,9.92-10.39,24.35-16.63,34.31-27.13.56-.59,11.66-5.67,14.34-7.14,5.57-3.06,14.85-6.7,19.75-10.22,2-1.44,1.4-3.76,1.58-3.93.37-.37,2.84,1.19,4.28.86,2.4-.55,3.4-4.61,4.7-5.35,1.56-.89,3.57-.21,5.2-.8,2.13-.77,15.82-6.53,16.74-7.23,2.37-1.79.86-5.42,6.72-5.25l10.3-6.2c.31-.09.69.09,1,0,2.36.04,3.46.67,3-2,1.2-.25,4.53.34,5,0,2.36.04,3.46.67,3-2,.6-.11,1.84.17,2,0,2.36.04,3.46.67,3-2,1.28-.08,2.72-.08,4,0,.16,0,1.12.96,2.41,1.03,8.48.49,19.04-5.09,26.56-4.03Z"/>
            <path class="cls-9" d="M368.84,370.62l-10.3,6.2c-5.86-.17-4.35,3.45-6.72,5.25-.92.7-14.61,6.46-16.74,7.23-1.63.59-3.64-.09-5.2.8-1.3.74-2.3,4.8-4.7,5.35-1.44.33-3.91-1.23-4.28-.86-.17.17.42,2.49-1.58,3.93-4.9,3.52-14.18,7.16-19.75,10.22-2.68,1.47-13.79,6.56-14.34,7.14-9.96,10.5-24.39,16.74-34.31,27.13-5.72,5.99-2.68,4.47-10.49,9.5-3.18,2.05-12.53,12.46-15.45,15.52-3.06,3.21-10.33,7.22-10.75,7.75-3.86,4.92-3.46,2.52-5.04,3.94-.45.4-.13,2.21-1.21,3.24-.97.92-5.29,1.84-5.78,2.75-.72,1.33.3,3.73-.32,4.68-.37.57-2.53.44-3.23,1.01-3.38,2.78-5.8,9.15-8.62,12.62-8.84,10.87-13.85,19.02-21.59,30.36-1.41,2.07-5.88,5.75-6.46,6.77-1.1,1.94-.48,4.58-1.48,6.27-1.5,2.57-8.36,8.41-10.86,13.11-2.23,4.19-2.96,10.47-4.63,14.1-.57,1.22-2.29,1.29-2.83,2.37-8.35,16.56-19.09,43.69-21,61.96-.6,5.75.62,12.32-.15,17.83-.35,2.51-3.69,9.78-3.93,12.08-.44,4.28,2.85,13.22,2.95,15.94.06,1.51-2.8,7.78-2.86,11.11s.92,18.04,1.97,20.58c5.55,13.42,11.16,31.59,14.14,46,2.02,9.81,4.77,10.47,8.19,17.8,4.48,9.6,7.42,19.17,13.22,28.75,7.69,12.7,32.48,42.89,43.94,50.47,3.82,2.52,6.31,3.21,10.04,5.43,17.34,10.34,32.46,26.15,50.01,36.12,4.89,2.78,21.29,7.02,23.06,11.68.41,1.07.99,5.09-1.25,4.27-12.66-4.16-25.99-6.53-38.29-11.64-1.69-.7-10.1-5.89-10.86-6.14-1.62-.53-3.92.36-5.18-.35-.43-.24-3.49-4.84-6.29-6.18-3.15-1.51-7.37-1.16-8.88-2.11-1.89-1.18-5.75-4.52-8.21-5.82-5.17-2.74-10.91-4.93-16.31-5.62-1.4-.18-9.37-1.11-9.84-.96-1.27.38-1.23,2.68-2.3,2.96-2.4.62-5.45-1.31-7.27-.57-2.65,1.07-2.59,5.37-4.7,6.34-1.77.81-8.96.86-9.3,1.19-.3.29.22,5.79-.06,7.43-.48,2.8-2.77,4.43-1.76,7.81,1.45,4.85,5.15,4.08,7.4,5.67,1.22.86,4.4,5.75,5.88,7.09,1.08.96,3.34.92,4.05,1.94,1.22,1.78-.09,5.02,2.92,8.07,2.04,2.07,4.15,1.85,5.89,3.1,9.37,6.75,15.88,8.5,25.19,13.78,4.78,2.71,5.03,5.37,6.68,6.81.96.83,7.31.49,6.77,4.23-35.78-10.72-79.72-45.72-106.9-71.93l5.99,1.99c.46-4.13-3.65-5.68-4.99-7.44-6.3-8.24-14.28-20.44-21.53-27.5-1.04-1.01-2.9-.8-3.26-1.19-.7-.78-4.64-15.54-6.97-19.51-1.6-2.71-3.91-3.02-4.97-5.02-2.3-4.36-2.39-11.51-4.15-15.83-.98-2.4-3.79-3.42-2.56-5.43,3.47-5.69,11.43-2.64,16.68-3.18,2.2-.23,6.87-2.9,7.26-2.81.93.23,1.16,2.48,1.71,2.79.35.2,6.42,1.76,7.58,2.06.53.13,7.3-2.05,10.58-1.53,2.62.42,3.67,3.05,5.36,3.52,2.56.72,4.59-1.06,6.54-.65.5.1,8.78,3.22,9.48,3.55,1.17.56,12.32,12.59,14.61,14.85,11.41,11.25,22.61,23.41,34.03,35.36,1.99.09,8.26,6.16,9.54,4.98.81-.75-3.3-5.28-4.07-6.18-3.75-4.4-9.48-8.54-13.31-12.89-15.3-17.38-24.86-38.16-36.67-58.02-3.09-5.2-3.58-4.58-6.23-10.97-24.04-58.06-23.51-114.14-6.81-174.31,4.77-17.18,16.08-33.38,23.99-48.94,1.28-2.51,4.71-9.51,5.14-11.35.13-.58-.11-1.38,0-2,4.27.57,2.52-.69,3-3,7.33-4.44,4.97-8.13,8.55-11.96,7.87-8.43,15-18.86,22.73-27.63,9.54-10.81,19.61-15.32,25.66-28.34,3.78-1.71,5.69-1.69,9.06-5.47.84-.95.67-2.95,1.13-3.32.69-.55,2.68,0,3.83-.68s.69-2.08.96-2.52c.22-.36.77-.63,1-1h4s0-4,0-4c.32-.07.69.08,1,0,2.73-.74,3.37,1.02,4-4,.3-.12.75.13,1,0,5.93-3.01,6.07-3.88,9.99-7.99.73-.76,2.34-2.82,2.73-3.05,1.13-.67,2.32-.56,3.26-.95,4.06-1.69,7.44-3.32,9.99-6.99.25-.36.75-.63,1-1,5.47.58,3.97-1.05,5-4,1.66-.84,5.74-2.18,5-4,.83-.38,1.94-.49,3-1,2.8-1.35,5.6-2.66,8.32-4.16l7.66-5.83c2.06-.84,2.64-1.22,4-3,1.85.6,2.76-.51,4-1,4.85-1.91,13.46-6.92,18.86-9.61,16.7-8.3,30.15-16.02,48.08-21.36Z"/>
            <path class="cls-12" d="M460.76,921.07c3.06,5.64,3.24,2.79,7.99,4,16.09,4.08,31.17,16.18,46.96,21.98-1.43.43-1.98,1.54-2,3-10.09.5-23.92,9.13-33.94,12.51-15.71,5.31-32.64,6.96-48.98,10.46-3.21-3.49,3.4-.95,3.99-3.51.4-1.74-1.96-2.79-3.49-2.55-10.85.91-21.72,3.65-32.47,5.07-3.29-6.93,3.01-8.47,4.37-13.19.82-2.84-.74-4.84.08-6.75,1.99-4.63,10.49-5.35,14.46-7.65.63-3.03,5.21-2.44,5.15-4.87-.12-4.43-2.75-3.42-4.98-5.1-4.48-3.38-7.06-5.72-12.44-8.53-1.18-.61-2.13-2.43-3.26-2.62-2.76-.47-5.62,2.63-6.37-4.23l31.37,2.95c5.34-.28,4.93-7.94,6.12-7.97,3.91-.11,13.06,5.73,17.65,6.41,3.1.46,6.03.08,9.79.61Z"/>
            <path class="cls-8" d="M398.82,972.02c10.75-1.42,21.62-4.15,32.47-5.07,1.53-.23,3.89.81,3.49,2.55-.59,2.56-7.2.02-3.99,3.51-.05.01.18.83-.51.98-26.54,5.66-65.79,9.93-92.94,8.05-5.71-.39-11.62-2.52-16.95-3.03-15.7-1.5-25.64-1.09-41.47-5.54-1.66-.47-3.55.19-2.98-2.46,11.48.22,23.22.12,34.97,1,13.98,1.04,27.37,5.06,41.51,5.05,13.05-.01,32.85-3.26,46.41-5.05Z"/>
            <path class="cls-13" d="M302.91,268.73c-1.41,5.31-9.17,5.82-12.98,7.5-9.12,4.01-17.78,8.02-26.71,12.28-.82.39-1.83-.17-1.17,1.59,2.38,6.41,13.9,9.19,19.88,6.61.32,2.19-2.45,3.09-2.07,5.42.14.85,2.56.8,3.01,2.18.6,1.87-1.34,4.58-.86,5.25.27.36,2.3.5,3.38,2.15,1.37,2.09.98,5.59,1.77,6.74.83,1.21,13.66,4.29,16.15,6.11,1.16.85-.31,5.46,6.27,7,1.81.42,1.19-1.83,1.84-1.94,3.3-.54,3.85,2.74,5.48,4.58,2.36,2.68,3.89-.12,2.01,6.45,7.68-2.04,3.89-.87,4.1,2.55.11,1.79,1.54,2.9,1.71,4.17.34,2.51-2.68,5.69,2.14,6.85,1.81.44,3.84-1.03,4.86-.45.24.13,3.01,4.25,3.06,4.51.24,1.29-2.69,3.27-1.89,5.35,4.14-.91,6.89-3.17,11.3-.8,2.27,1.22,1.35,4.49,4.65,5.41,3.51.98,7.42-5.83,8.06,2.83-8.08,2.05-14.65,7.39-21.98,11.08-9.51,4.79-19.56,8.84-29.05,13.91-1.62.87-5.28,2.19-4.96,4.54-.55-.07-1.46-.09-2,0-3.84.62-7.39,2.99-9.99,5.99-3.09,1.35-6.15,3.65-8.85,5.66-1.22.91-2.94-.36-2.14,3.33-1.06.51-2.17.62-3,1-3.28,1.49-3.8.55-5,4-1.09.55-2.66.3-4,1.52-.99.9-.72,2.08-.99,2.48-.25.37-.75.64-1,1-3.45,1.03-9.21,3.16-9.99,6.99-.95.39-2.14.28-3.26.95-.39.23-2,2.28-2.73,3.05-3.5,1.53-9.22,4.03-9.99,7.99-.25.13-.7-.12-1,0-2.17.86-3.83.8-4,4-.31.08-.68-.07-1,0-4.04.92-2.62,1.78-4,4-.23.37-.78.64-1,1-1.79.13-3.11.91-4.5,1.99-2.69,2.11-9.38,7.62-10.49,10-7.75,3.5-23.6,23.11-30.97,29.97-1.14,1.06-2.41,2.46-3,3-1.78,1.62-1.62-.42-4,4-4.65,2.86-3.52,2.27-5.99,6.99-2.04,3.9-3.81,6.27-5.99,9.99-1.42.06-4.72,3.16-5.38,4.08-11.54,16.22-21.57,34.64-29.83,53.13-1.64,3.68-5.16,6.22-3.76,11.72-.74,1-.63,2.11-1,3-4.02-.54-1.95,3.57-2,4-.04.36.1.79,0,1-.18.38-1.63.24-2,3-.09.64.07,1.35,0,2-1.21,1-2.07,2.5-2.53,3.98-2.04,6.51-6.62,14.46-7.45,21.51-.69,5.85,2.85,10.99-5.01,9.48-1.11,5.38,4.12.6,3.01,5.99-3.87-1.84-4.62,3.36-6.49,2.99-1.39-.27-2.86-10.32-3.74-12.29-.62-1.4-7.42-9.47-7.62-10.37-.34-1.52,1.07-3.11.71-4.61-1.69-7.09-8.79-18.46-11.78-26.23-1.1-2.85-3.99-10.12-4.66-12.4-.84-2.87.92-4.9.5-6.37-.33-1.16-4.69-3.01-5.64-6.4-1.19-4.21.19-9.79-3.89-13.13-.81-.66-2.93-.77-3.22-1.24-.57-.94.13-3.51-.34-5.14-.52-1.79-6.04-8.25-8.81-6.7-.41-2.29,1.46-3.55,1.94-5.56,2.26-9.64,4.96-20.8,3.8-30.79-.2-1.73-2.25-2.94-2.47-4.25-.18-1.08,1.18-3.89.74-4.34-.35-.36-4.47,1.15-2.99-2.49,1.55-3.82,10.22,3.08,7.79-3.81-.65-1.84-3.23-2.41-2.85-5.16.07-.5,1.86-.41,2.04-1.19,1.47-6.57,2.46-11.4,3.01-18.32,1.17-.2,4.7.31,4.99,0,.27-.3-.29-2.28.04-3.2.46-1.28,5.57-3.96,3.96-7.78-7.19,2.75-8.4,3.55-8.99,10.98-5.39.94-8.59,3.77-8.1,9.53.17,1.99,3.17,1.3,2.11,4.45-11.35.52-12.85,10.79-16.93,18.54-.91,1.73-2.56,2.96-3.5,4.53-.74,1.24-.17,6.11-3.55,3.9,9.09-20.36,19.4-37.85,32.15-56.26,5.64-8.14,11.6-13.5,15.8-22.66,5.23-3.57,11.76-13.09,16.94-18.5,10.19-10.64,20.61-22.3,31.01-32.45,8.07-7.87,21.38-15.17,30.01-23.44,1.35-1.29,2.29-2.8,2.96-4.54,3.84-.16,10.44-6.44,13.99-8.99,4.4-3.17,8.54-6.94,12.99-9.99,4.7-3.22,10.27-7.06,14.99-9.99,30.57-18.97,66.28-37.15,99.91-49.95Z"/>
            <path class="cls-4" d="M152.05,538.46c-.43,1.84-3.86,8.84-5.14,11.35-7.91,15.56-19.22,31.76-23.99,48.94-16.7,60.17-17.23,116.25,6.81,174.31,2.65,6.39,3.13,5.77,6.23,10.97,11.81,19.86,21.37,40.65,36.67,58.02,3.83,4.35,9.56,8.49,13.31,12.89.77.9,4.88,5.43,4.07,6.18-1.28,1.18-7.55-4.89-9.54-4.98-11.42-11.95-22.62-24.12-34.03-35.36-2.29-2.26-13.44-14.3-14.61-14.85-.7-.33-8.98-3.45-9.48-3.55-1.95-.4-3.98,1.37-6.54.65-1.69-.47-2.73-3.1-5.36-3.52-3.28-.52-10.05,1.66-10.58,1.53-1.16-.3-7.23-1.86-7.58-2.06-.55-.31-.79-2.57-1.71-2.79-.39-.09-5.06,2.58-7.26,2.81-5.25.54-13.21-2.51-16.68,3.18-1.23,2.01,1.59,3.04,2.56,5.43,1.76,4.31,1.85,11.47,4.15,15.83,1.06,2,3.37,2.31,4.97,5.02,2.33,3.97,6.27,18.73,6.97,19.51.36.39,2.22.18,3.26,1.19,7.25,7.06,15.24,19.26,21.53,27.5,1.35,1.76,5.45,3.31,4.99,7.44l-5.99-1.99c-7.85-7.57-16.08-14.95-23.49-22.97-2.77-2.99-1.8-3.98-5.49-6.01-1.78-5.48-2.29-3.14-4.03-5.72-2.96-4.38-2.4-7.34-7.95-10.26-3.89-7.47-8.2-13.34-12.98-20.49-2.51-3.76-3.27-7.63-7-9.48-8.62-20.44-18.43-33.85-24.98-56.94-.34-1.21.21-3.35-.7-4.77l-6.29-16.21c-7.27-26.69-11.61-46.88-12.99-74.92,1.61-4.73,1.17-10.17,2.27-15.21.67-3.1,2.47-6.54,3.43-9.56.7-2.21-.15-8.49,4.31-5.72.45.28,6.57,7.63,6.85,8.14.94,1.75.86,4.36,1.62,5.37.88,1.18,3.24.86,4.02,1.97,1.1,1.55,1,8.19,3.03,10.95,4.15,5.64,11.56,12.11,16.26,18.7.91,1.27,1.85,4.79,2.38,5.13.87.56,2.78,0,3.82.65,1.46.9.56,4.05,1.45,5.56.58.99,9.08,5.9,10.53,7.46.41.44,6.18,8.06,6.46,8.53.91,1.55.07,3.61.72,4.77.27.5,7.4,6.35,8.51,7.24,1.44,1.15,5.07,1.56,6.34,3.38s.55,4.49,1.36,5.63c.39.54,10.12,5.24,11.29,6.19.55.45,7.53,10.37,8.09,11.39,1.33,2.39.65,6.57,4.15,6.34-.43-2.32,1.95-4.6,1.95-6.5,0-2.06-3.36-8.15-3.62-10.16-.22-1.73,1.15-3.71.72-5.67-.16-.74-2.02-.62-2.06-1.22-.23-4.46,1.65-15.4,1.03-19.84-3.15-22.51-.13-45.3,3.86-68.13,1.68-9.61,5.22-19.91,6.12-28.35.07-.65-.09-1.36,0-2,2.67.47,2.04-.63,2-3,.1-.21-.04-.64,0-1,1.75-.89,1.46-2.69,2-4,.37-.89.26-2,1-3,7.84-10.54,13.16-27.71,20.81-39.63l8.16-10.32Z"/>
            <path class="cls-3" d="M62.14,464.53c.59-7.43,1.79-8.23,8.99-10.98,1.61,3.81-3.5,6.49-3.96,7.78-.33.92.23,2.9-.04,3.2-.29.32-3.82-.2-4.99,0-.55,6.91-1.54,11.74-3.01,18.32-.18.79-1.97.7-2.04,1.19-.38,2.75,2.2,3.32,2.85,5.16,2.44,6.89-6.24,0-7.79,3.81s2.64,2.13,2.99,2.49c.45.46-.91,3.27-.74,4.34.22,1.31,2.27,2.52,2.47,4.25,1.16,9.99-1.54,21.15-3.8,30.79-.47,2.01-2.35,3.27-1.94,5.56,2.77-1.54,8.29,4.91,8.81,6.7.47,1.64-.23,4.2.34,5.14.29.47,2.41.58,3.22,1.24,4.07,3.35,2.7,8.92,3.89,13.13.96,3.38,5.31,5.24,5.64,6.4.42,1.47-1.34,3.5-.5,6.37.66,2.28,3.56,9.55,4.66,12.4,2.99,7.77,10.09,19.14,11.78,26.23.36,1.5-1.05,3.1-.71,4.61.2.9,7,8.97,7.62,10.37.88,1.97,2.34,12.02,3.74,12.29,1.87.37,2.62-4.83,6.49-2.99,1.11-5.39-4.12-.6-3.01-5.99,7.86,1.51,4.33-3.63,5.01-9.48.83-7.05,5.41-15,7.45-21.51.46-1.48,1.32-2.98,2.53-3.98-.9,8.44-4.44,18.73-6.12,28.35-4,22.83-7.02,45.62-3.86,68.13.62,4.43-1.26,15.38-1.03,19.84.03.61,1.89.49,2.06,1.22.44,1.96-.94,3.94-.72,5.67.26,2.01,3.62,8.1,3.62,10.16,0,1.9-2.38,4.17-1.95,6.5-3.5.23-2.82-3.95-4.15-6.34-.57-1.02-7.54-10.94-8.09-11.39-1.17-.95-10.9-5.65-11.29-6.19-.81-1.14-.04-3.74-1.36-5.63s-4.91-2.23-6.34-3.38c-1.11-.89-8.24-6.74-8.51-7.24-.64-1.16.2-3.22-.72-4.77-.28-.47-6.05-8.09-6.46-8.53-1.45-1.56-9.95-6.46-10.53-7.46-.89-1.52.01-4.66-1.45-5.56-1.04-.64-2.95-.09-3.82-.65-.53-.34-1.47-3.86-2.38-5.13-4.7-6.59-12.11-13.06-16.26-18.7-2.03-2.76-1.93-9.4-3.03-10.95-.79-1.11-3.15-.79-4.02-1.97-.76-1.01-.67-3.62-1.62-5.37-.27-.51-6.4-7.86-6.85-8.14-4.47-2.76-3.61,3.51-4.31,5.72-.96,3.02-2.76,6.45-3.43,9.56-1.1,5.04-.66,10.48-2.27,15.21-1.12-22.87-1.2-44.32,3.92-65.69.64-2.69,1.83-8.67,2.07-11.23,2.87-1.51,2.06-5.47,3.06-8.24,1.57-4.35,2.16-9.01,2.93-14.74,2.47-18.27,9.51-32.21,16.98-48.95,3.38,2.21,2.81-2.66,3.55-3.9.94-1.57,2.59-2.8,3.5-4.53,4.08-7.75,5.59-18.03,16.93-18.54,1.06-3.16-1.94-2.46-2.11-4.45-.49-5.76,2.7-8.59,8.1-9.53Z"/>
            <path class="cls-3" d="M23.17,750.24c-4.19-6.24-5.1-14.02-6.99-20.98l6.29,16.21c.91,1.41.36,3.55.7,4.77Z"/>
            <path class="cls-2" d="M358.85,467.53c-5.45-9.11,5.12-7.8,11.67-10.81,1.5-.69,7.84-4.54,8.3-5.69,1.63-4.01-7.23.98-7.92,1.1-2.1.36-7.52.03-5.4-2.55,2.44-2.95.7-3.65,1.58-7.29,1.19-4.94,4.5-3.78,6.48-5,1.87-1.15,5.08-8.6,6.18-10.29.96-1.48,3.58-2.13,3.86-2.64.59-1.06.14-4.16.99-6.51,1.53-4.23,6.16-5.46,6.27-5.89.38-1.39-.53-3.43.42-5.39,1.16-2.39,5.14-1.59,6.08-2.91,1.32-1.84-.62-6.38,1.32-8.67,1.36-1.6,3.57-.94,4.79-1.73.97-.63,7.52-5.25,7.87-5.6,1.49-1.53,1.15-3.69,3.1-4.89,4.26-2.6,11.54-1.23,14.72-3.26s1.74-5.36,3.27-6.97c.77-.82,7.24-4.2,8.81-4.92,3.46-1.61,9.48-2.64,11.86-3.94,1.32-.72.34-2.73.65-3.04.35-.36,3.77.87,5.22.75,4.2-.33,10.92-2.24,14.51-2.53,28.79-2.32,57.76,2.01,85.56,7.87,18.17,3.83,31.5,11.43,46.49,21.44,2.66,1.78,5.97,3.56,8,4.99,8.67,6.12,30.03,36.42,34.03,46.39,2.02,5.02-.09,7.42.22,11.26.27,3.42,4.35,10.7,4.75,12.41.5,2.13-.25,5.02.03,7.3-13.69-43.34-48.32-63.5-93.43-62.95-1.69.02-4.44-.64-5.48,1.02-.67,0-1.33,0-2,0-4.95-1.34-13.42-1.65-18.51-1.03-3.58.43-6.85,2.59-10.97,3.01-8.78.9-17.59-.42-26.84,1.13-40.71,6.79-93.5,31.97-128.5,52.83-1.21.72-6.38,1.98-7.99,3Z"/>
            <path class="cls-14" d="M660.57,455.54c-1.57,1.1-3.61-3.71-3.75-4.73-.11-.83.75-1.19.75-1.26,2.07.86,2.74,3.91,3,5.99Z"/>
            <path class="cls-9" d="M186.02,327.67c.32.04,1.24,1.08,2,1-4.45,3.05-8.59,6.82-12.99,9.99-3.09-3.24,3.7-6.51,5.53-8,2.12-1.73.32-3.69,5.46-2.99Z"/>
            <path class="cls-2" d="M233.97,594.4c-15.44,32.29-19.73,49.89-9.36,85.58,3.4,11.71,8.91,21.03,14.35,31.3,4.9,9.25,5.45,13.55,12.99,21.98.14,3.68,1.74,5.72,5,6.99.33.59.56,1.25,1,2,.26.43.47,1.12,1,2,36.63,60.12,102.98,114.45,161.85,151.85,6.9,4.38,14.75,9.69,22.31,14.16,2.71,1.61,16.67,8.17,17.49,9.01.53.55.02,1.53.17,1.8,1.26.18,2.7-.12,4,0,1.35,1.42,3.19,2.12,4,4-4.76-1.2-4.93,1.64-7.99-4-3.77-.53-6.69-.15-9.79-.61-4.59-.68-13.74-6.52-17.65-6.41-1.19.03-.78,7.69-6.12,7.97l-31.37-2.95c.75,6.87,3.62,3.77,6.37,4.23,1.12.19,2.08,2.01,3.26,2.62,5.39,2.81,7.96,5.15,12.44,8.53,2.23,1.68,4.86.67,4.98,5.1.06,2.43-4.51,1.84-5.15,4.87-3.96,2.29-12.47,3.01-14.46,7.65-.82,1.91.75,3.91-.08,6.75-1.37,4.72-7.67,6.26-4.37,13.19-13.56,1.79-33.36,5.04-46.41,5.05-14.13.01-27.53-4.01-41.51-5.05.63-2.95-2.37-2.02-3.71-3.28-2.55-2.38-4.5-7.4-6.72-9.75-2.88-3.05-6.69-1.9-6.46-7.32.4-9.51,12.53-11.96,20.4-12.6,7.55-.61,12.92,3.18,19.48,3.98,3.29.4,7.26-.48,10.5,0,18.42,2.69,35.51,8.23,52.55-3.43.86-.59,2.74-.45,2.87-.6,2.41-2.83-2.54-3.07-3.67-3.71-8.83-5.06-10.27-10.35-21.29-14.71-5.87-2.33-19.59-6.63-25.55-7.41-8.37-1.09-10.83,3.43-19.1-2.4-3.13-2.2-4.08-3.32-8.29-5.69-5.53-3.1-3.52-6.64-7.59-10.89s-10.76-6.99-14.84-13.13c-3.02-4.54-3.54-10.27-5.45-14.53-1.54-3.44-7.04-5.47-8.96-9.02s-3.01-7.73-4.64-11.34c-3.44-7.64-11.15-8.95-15.16-13.31-1.06-1.15-1.13-3.25-2.75-4.75-1.25-1.15-3.94-1.6-4.32-2.17-1.74-2.58-3.86-8.37-7.65-10.83-1.58-1.03-3.85-.75-5.08-1.92-1.13-1.08-1.17-3.95-2.44-5.56-7.99-10.11-10.75-20.95-17.29-31.16-.88-1.38-5.32-2.31-7.46-7.04-5.19-11.5-8.15-22.57-10.71-35.25-.76-3.74-2.75-5.71-3.48-8.51-1.59-6.08-3.53-24.67-3.02-30.84.6-7.24,3.91-17.43,5-24.98.96-6.7-2.08-16.07-.88-22.77.92-5.14,8.79-18.65,11.15-24.9,3.92-10.4,5.13-12.78,11.68-22.07l5.97-5.73Z"/>
            <path class="cls-11" d="M438.78,352.64c26.43-1.68,54.53-.68,81.38.04,8.18.22,11.79-.85,19.09-1.98,2.28-.35,14.29-1.59,15.28-2.2,1.66-1.02-1.15-5.92,6.13-2.86.95-4.24-1.88-2.26-3.98-4.51-.44-1.73,4.96-3.3,2.33-9.25-.93-2.11-4.98-2.12-5.33-3.77-.25-1.18,2.83-3.38,1.99-5.44l-9.98,2c-1.05-6.01-1.1-9.1,1.93-14.49l-2.94-10.96c1.63-2.96,3.96.35,6-1.02,1.01-8.45-3.5-1.2-4.99-5.01-.77-1.97,3.24-2.01,3.98-4s-5.64-1.36-2.98-4.48c.48-.57,5.36,3.15,4.01-1.5-.17-.57-3.78-1.72-4.55-3.52-.51-1.19.53-6.9-.48-8.96,9.91,1.16,3.89-5.05,5.44-7.98.87-1.65,4.3-2.37,5.08-4s.09-3.9.65-4.83c.3-.48,4.88-1.38,5.81-3.68,1.35-3.33-5.03.86-6.44.5-2.72-.7-.23-4.69-.54-4.98-.57-.52-7.05.63-6-3,2.79-.85,6.29.96,8.54.87,1.74-.07,2.87-1.47,4.2-1.7,1.97-.33,8.79.82,10.01,2.04,1.15,1.15,1.04,4.62,1.23,4.78.57.51,3.23-1.01,4.38-.78s1.92,2.17,3.31,2.58c1.73.52,3.81-.11,5.59.4,2.35.66,5.09,4.45,12.02,5.96,1.6.35,3.03,2.37,2.67-1.17,9.11,5.4,13.44,8.7,20.98,15.98-.92,2.31,1.13,5.93,1.02,7.4-.05.71-2.91,1.07-3.6,3.54-.09.31-.16,6.1-.1,6.41.79,4.07,6.46,5.85,1.7,11.18-1.06,1.19-2.92,1.32-3.01,1.46-.74,1.02,2.01,3.12,2.03,4.49.02,1.81-2.65,2.72-3.05,5.01-.45,2.62.92,4.92.72,6.83-.16,1.55-2.87,4.76-1.62,6.52.4.57,6.12.64,3.89,4.05-1.32,2.02-6.24-1.56-6,1.55.27,3.61,3.66,4.81,3.86,7.14.14,1.66-2.62,3.32-2.8,5.87-.36,5.18,3.4,11.07,3.68,14.06.14,1.5-1.05,3.29-.8,4.7.18,1.03,2.91,1.21,3.6,2.64.78,1.63.13,4.46.59,4.96.39.43,2.58-.18,2.86.08,1.31,1.28-2,5.4-1.97,7.38.05,3.36,2.99,3.67,3.05,4.23.14,1.36-1.04,3.83-1.14,5.86-.08,1.67,1.09,3.64.86,4.87-.05.28-3.11,4.65-3.4,4.7-4.13.68-5.4-4.04-6.62-4.81s-3.61-.28-5.72-1.78c-2.57-1.82-5.01-7.24-8.24-9.73-1.2-.92-18.85-9.89-20.51-10.46-11.83-4.09-29.33-7.64-41.75-10.2-35.67-7.37-74.98-6.8-110.61.16-4.26.83-2.43,2.74-8.71,1.78-.73-2.06,4.51-3.3,5.79-3.7,2.92-.92,6.76,1,6.2-4.29,2.19-.18,4.23-.89,5.99-1ZM569.65,250.75c-1.74-1.74-5.1,1.6-1.48,2.98,2.12.81,1.77-2.69,1.48-2.98ZM553.66,275.72c2.01-2.03-3.48-6.48-4.98-2.48-1.4,3.71,4.72,2.75,4.98,2.48Z"/>
            <path class="cls-8" d="M333.88,943.05c.03-6.13-8.95-2.11-8.98-6.99,3.23,1.24,14.09-1.24,15.48-4,2.68-5.31-2.65-4.24-6.19-5.8-14.59-6.42-29.68-15.76-41.75-26.14-3.26-2.8-6.43-2.87-7.28-7.72-1.07-6.05,3.35.91,3.8,1.17,2.51,1.47,11.68,3.34,14.52,5.46,1.96,1.46,3.2,7,6.46,8.61,2.5,1.23,5.43-4.69,9.48,3.44l2.48-5.98c4.22,2.37,5.16,3.48,8.29,5.69,8.27,5.82,10.74,1.3,19.1,2.4,5.96.78,19.68,5.08,25.55,7.41,11.02,4.37,12.46,9.65,21.29,14.71,1.13.65,6.09.89,3.67,3.71-.13.15-2.01.01-2.87.6-17.03,11.66-34.12,6.12-52.55,3.43-3.24-.47-7.21.41-10.5,0Z"/>
            <path class="cls-9" d="M432.78,353.64c.56,5.29-3.28,3.36-6.2,4.29-1.28.41-6.52,1.65-5.79,3.7-.63-.1-1.36.09-2,0-7.52-1.06-18.07,4.52-26.56,4.03-1.29-.07-2.26-1.02-2.41-1.03,2.55-2.71,6.56-3.09,9.99-4,2.99-.79,7.33-.41,9.99-3,1,0,2,.03,3,0,5.25-.17,12.89-3.41,19.98-4Z"/>
            <path class="cls-2" d="M357.85,468.53c-4.09,3.94-9.85,7.14-14.99,9.99,1.4-3.91,1.37-2.36,2.64-4.34,3.44-5.33,4.71-7.83,12.34-5.65Z"/>
            <path class="cls-2" d="M237.97,586.41c.8,2.57-1.44,3.12-2,4l-.99-.51c-.45-2.33.72-3.31,2.99-3.48Z"/>
            <path class="cls-2" d="M337.87,482.51c.5,2.21-2.25,2.84-4,4-.8-4.02,1.49-2.97,4-4Z"/>
            <circle class="cls-2" cx="379.85" cy="422.55" r="1.23"/>
            <path class="cls-3" d="M391.82,241.76c-11.91,3.93-20.82,6.32-32.79,9.67-8.98,2.51-17.09,7.64-26.2,9.81-1.61,1.1.43,4.01-.86,5.9-.96,1.42-3.9-.67-3.09,2.59,2.84.44,6.85-.57,9.44-.06.75.15-.34,4.98,5.54,3.06-1.34-1.64-.93-4.79.99-2.99.27.25,1.22,5.5,2.56,6.94,1.15,1.23,3.39,1.11,3.99,2,1.9,2.78-2.16,6.1,5.42,8.57,1.91.62,5.66.05,6.6,1.44.66.97-.68,2.63-.11,4s3.25,2.49,3.98,4.06c.8,1.72.25,4.1,1.43,5.56.92,1.13,3.02,1.14,3.99,2.01,1.13,1.02,4.85,5.85,5.36,6.11,1.63.84,4.07-.4,5.86,1.69,2.05,2.4-1.24,5.55.3,7.63.91,1.23,4.73.86,6.56,2.45,1.27,1.1,1.48,3.13,2.62,4.41,2.05,2.27,10.11,9.38,10.86,11.07,1.16,2.6-.2,6.13.98,8.01,1.93,3.07,4.61-3.38,7.52-2.04-.84,5.65,1.28,3.85,6,4,1.89,6.82-4.73,5.31-6,9.99-1,.03-2,0-3,0-.18,0-.84-.96-1.62-.99-2.1-.08-9.21,1.51-8.37,3.98-3.43.91-7.44,1.29-9.99,4-1.28-.08-2.72-.08-4,0-5.05.34-2.12,1.04-3,2-.16.17-1.4-.11-2,0-5.32,1.01-1.95,1.24-3,2-.47.34-3.79-.25-5,0-2.71.56-2.81,1.94-3,2-.31.09-.69-.09-1,0-17.93,5.34-31.38,13.06-48.08,21.36-5.4,2.69-14.01,7.7-18.86,9.61-.13-.45-.55-.94-1-1-.32-2.34,3.33-3.67,4.96-4.54,9.49-5.07,19.54-9.11,29.05-13.91,7.32-3.69,13.89-9.03,21.98-11.08-.64-8.66-4.54-1.85-8.06-2.83-3.31-.93-2.38-4.2-4.65-5.41-4.41-2.36-7.16-.11-11.3.8-.8-2.08,2.13-4.05,1.89-5.35-.05-.27-2.82-4.38-3.06-4.51-1.02-.58-3.05.89-4.86.45-4.82-1.17-1.81-4.34-2.14-6.85-.17-1.27-1.6-2.38-1.71-4.17-.21-3.42,3.58-4.59-4.1-2.55,1.87-6.57.34-3.77-2.01-6.45-1.63-1.85-2.17-5.12-5.48-4.58-.65.11-.03,2.36-1.84,1.94-6.58-1.54-5.11-6.15-6.27-7-2.49-1.82-15.32-4.9-16.15-6.11-.79-1.14-.4-4.65-1.77-6.74-1.09-1.66-3.12-1.79-3.38-2.15-.49-.66,1.46-3.37.86-5.25-.45-1.38-2.87-1.33-3.01-2.18-.38-2.33,2.38-3.23,2.07-5.42-5.97,2.58-17.5-.2-19.88-6.61-.66-1.77.35-1.2,1.17-1.59,8.94-4.26,17.59-8.27,26.71-12.28,3.82-1.68,11.58-2.19,12.98-7.5,1.74-.66,3.17-1.69,4-2,.98-.36,2.51-.46,4-1l4-2c18.2-6.4,40.32-13.47,58.9-18.52,5.61-1.52,12.22-2.99,18.02-3.46Z"/>
            <path class="cls-9" d="M385.83,364.63c.47,2.67-.63,2.04-3,2,.88-.96-2.05-1.66,3-2Z"/>
            <path class="cls-9" d="M380.83,366.63c.47,2.67-.63,2.04-3,2,1.04-.75-2.33-.99,3-2Z"/>
            <path class="cls-9" d="M372.84,368.63c.47,2.67-.63,2.04-3,2,.18-.06.28-1.44,3-2Z"/>
            <path class="cls-4" d="M226.98,453.54c-.27.44.14,1.86-.96,2.52s-3.14.12-3.83.68c-.46.37-.29,2.38-1.13,3.32-3.36,3.78-5.28,3.76-9.06,5.47-6.06,13.02-16.13,17.53-25.66,28.34-7.73,8.77-14.87,19.2-22.73,27.63-3.58,3.84-1.22,7.52-8.55,11.96-.48,2.31,1.27,3.56-3,3,.62-3.4,1.29-1.96,3-3,.93-4.5,4.64-9.98,6.99-13.99,2.19-3.72,3.95-6.09,5.99-9.99,3.82-.24,4.58-4.36,5.99-6.99,4.1-2.53,2.29-2.17,4-4,.27-.29,3.4-.06,3-3,7.37-6.86,23.22-26.47,30.97-29.97,1.11-2.38,7.8-7.89,10.49-10,1.38-1.08,2.7-1.86,4.5-1.99Z"/>
            <path class="cls-3" d="M162.04,519.47c-2.36,4.01-6.06,9.48-6.99,13.99-1.71,1.04-2.38-.4-3,3-.11.62.13,1.42,0,2l-8.16,10.32c-7.65,11.92-12.97,29.09-20.81,39.63-1.4-5.51,2.12-8.04,3.76-11.72,8.26-18.49,18.29-36.91,29.83-53.13.66-.92,3.95-4.02,5.38-4.08Z"/>
            <path class="cls-4" d="M293.92,405.59l-7.66,5.83c-2.72,1.51-5.53,2.82-8.32,4.16-.8-3.7.92-2.42,2.14-3.33,2.7-2.01,5.76-4.31,8.85-5.66,1.07-.47,3.45-.37,5-1Z"/>
            <path class="cls-4" d="M247.96,436.56c-3.92,4.11-4.06,4.98-9.99,7.99.77-3.96,6.5-6.46,9.99-7.99Z"/>
            <path class="cls-3" d="M298.91,400.59c-.39.6-.59,1.45-1,2-1.36,1.78-1.94,2.16-4,3-1.55.63-3.92.53-5,1,2.6-3,6.15-5.37,9.99-5.99Z"/>
            <path class="cls-4" d="M263.94,425.57c-2.55,3.67-5.93,5.3-9.99,6.99.78-3.83,6.54-5.97,9.99-6.99Z"/>
            <path class="cls-4" d="M274.93,416.58c.74,1.81-3.33,3.16-5,4-1.02,2.94.48,4.58-5,4,.27-.4,0-1.58.99-2.48,1.34-1.22,2.91-.97,4-1.52,1.2-3.45,1.71-2.5,5-4Z"/>
            <path class="cls-4" d="M231.97,448.55v4s-4,0-4,0c1.37-2.22-.04-3.07,4-4Z"/>
            <path class="cls-4" d="M236.97,444.55c-.63,5.02-1.27,3.25-4,4,.17-3.19,1.83-3.14,4-4Z"/>
            <path class="cls-4" d="M300.91,400.59c.45.06.86.55,1,1-1.24.49-2.15,1.6-4,1,.41-.54.61-1.4,1-2,.53-.09,1.45-.07,2,0Z"/>
            <path class="cls-3" d="M181.02,495.5c.41,2.94-2.72,2.71-3,3-1.7,1.82.11,1.47-4,4-1.42,2.64-2.18,6.76-5.99,6.99,2.48-4.73,1.34-4.13,5.99-6.99,2.37-4.42,2.22-2.38,4-4,.59-.54,1.85-1.93,3-3Z"/>
            <path class="cls-3" d="M122.08,591.4c-.54,1.31-.24,3.1-2,4,.05-.43-2.02-4.54,2-4Z"/>
            <path class="cls-3" d="M120.08,596.4c.04,2.36.67,3.47-2,3,.37-2.75,1.82-2.62,2-3Z"/>
            <path class="cls-9" d="M483.73,227.77c-.53,4.1,2.32,1.02,3,1s1.34-.04,2,0c4.36.25,5.68.15,9.99,0,.66-.02,1.34.04,2,0-1.05,3.1,4.7,2.15,7.51,1.97,1.59-.1,1.39-.96,1.48-.97,2.95-.16,6.03-.05,8.99,0,.59,4.8,11.99,3.35,14.99,2,1.57.19,3.36-.11,5,0-.63,3.21,1.61,1.65,4,2,.92.14,2.02-.05,3,0,2.01.1,2.44.03,4,0,.66-.01,1.34.05,2,0-.35,4.26,2.72,1,3,1,1.89-.02,5.03,1.44,6.99,2-.37,4.25,2.72,1.01,3,1,.8-.02,2.99.7,4,1-.22,4.08,1.77,1,2,1,3.38,0,26.35,13.24,30.97,15.98.36,3.54-1.07,1.52-2.67,1.17-6.94-1.52-9.68-5.3-12.02-5.96-1.78-.5-3.86.12-5.59-.4-1.39-.42-2.17-2.36-3.31-2.58s-3.81,1.29-4.38.78c-.18-.16-.08-3.63-1.23-4.78-1.22-1.22-8.05-2.37-10.01-2.04-1.32.22-2.45,1.62-4.2,1.7-2.25.09-5.75-1.72-8.54-.87-1.05,3.62,5.43,2.48,6,3,.31.29-2.18,4.28.54,4.98,1.4.36,7.79-3.84,6.44-.5-.93,2.3-5.52,3.2-5.81,3.68-.57.93.12,3.2-.65,4.83s-4.2,2.35-5.08,4c-1.55,2.93,4.48,9.14-5.44,7.98,1,2.06-.03,7.77.48,8.96.77,1.81,4.39,2.95,4.55,3.52,1.35,4.65-3.53.93-4.01,1.5-2.65,3.12,3.74,2.44,2.98,4.48s-4.75,2.03-3.98,4c1.49,3.81,6-3.44,4.99,5.01-2.05,1.37-4.38-1.93-6,1.02l2.94,10.96c-3.03,5.39-2.98,8.48-1.93,14.49l9.98-2c.84,2.05-2.24,4.26-1.99,5.44.35,1.65,4.4,1.66,5.33,3.77,2.63,5.95-2.77,7.52-2.33,9.25,2.1,2.25,4.94.26,3.98,4.51-7.29-3.06-4.47,1.84-6.13,2.86-.99.61-13,1.85-15.28,2.2-7.29,1.13-10.9,2.19-19.09,1.98-26.85-.72-54.95-1.72-81.38-.04,1.2-1.44,2.93-1.57,4.62-1.88,6.57-1.21,12.46-2.5,17.85-6.16,2.48-1.68,4.41.25,3.51-4.96.5-.57,5.23,2.23,5.98-.5,1.36-4.94-3.97-2.38-5.5-2.45-4.11-.2-1.25-4.1-1.97-5.99-.64-1.66-5.01-5.71-6.39-7.68-2.02-2.89.46-4.34-5.11-2.35-1.1-2.6,2.05-1.78,2.05-2.51.01-3.26-5.59-9.87-5.82-11.09-.26-1.39,1.11-4.16.74-6.81s-2.8-4.14-2.88-6c-.05-1.29,1.62-4.7.88-5.52-.22-.25-3.66-.13-4.76-1.25-3.32-3.38-.49-14.39-8.21-13.78-.88-2.86,7-7.04,7.04-7.57.42-5-4.78-5.24-5.61-6.35-2.44-3.27,3.77-8.82,3.46-10.4-.14-.71-1.7-1.79-2.32-2.78-1.83-2.92.27-3.53-6.07-2.85-2.26-4.34,3.85-4.14,6.43-5.57,1.36-.75,2.03-2.37,3.85-3.19,3.82-1.73,10.25,2.23,9.21-3.24,1.28-.16,2.63-.81,4-1,1.73,1.7,2.3,1.36,2-1,1.83-.27,4.07.17,5.99,0,.28,1.66,2.32,1.22,3,0,1.35-.05,3.34-1.03,5.99-1,2.87.04,2.88.54,6.99,0,2.02-.26,3.97-.85,5.99-1Z"/>
            <path class="cls-4" d="M449.77,231.77c1.04,5.46-5.39,1.51-9.21,3.24-1.82.82-2.49,2.44-3.85,3.19-2.58,1.42-8.69,1.23-6.43,5.57,6.34-.68,4.25-.07,6.07,2.85.62.99,2.18,2.08,2.32,2.78.31,1.58-5.9,7.13-3.46,10.4.83,1.12,6.02,1.36,5.61,6.35-.04.53-7.92,4.71-7.04,7.57,7.72-.61,4.89,10.39,8.21,13.78,1.1,1.12,4.53,1,4.76,1.25.74.82-.94,4.24-.88,5.52.08,1.86,2.52,3.39,2.88,6s-1,5.41-.74,6.81c.23,1.22,5.83,7.82,5.82,11.09,0,.73-3.15-.08-2.05,2.51,5.57-1.99,3.09-.54,5.11,2.35,1.38,1.97,5.75,6.02,6.39,7.68.72,1.89-2.14,5.79,1.97,5.99,1.53.07,6.86-2.48,5.5,2.45-.75,2.73-5.48-.06-5.98.5.9,5.21-1.03,3.28-3.51,4.96-5.39,3.66-11.28,4.95-17.85,6.16-1.69.31-3.42.43-4.62,1.88-1.76.11-3.81.82-5.99,1-7.09.59-14.73,3.83-19.98,4,1.27-4.67,7.89-3.17,6-9.99-4.72-.16-6.85,1.65-6-4-2.91-1.35-5.6,5.11-7.52,2.04-1.18-1.88.18-5.41-.98-8.01-.76-1.7-8.82-8.8-10.86-11.07-1.15-1.28-1.36-3.31-2.62-4.41-1.83-1.59-5.65-1.22-6.56-2.45-1.54-2.09,1.76-5.23-.3-7.63-1.78-2.08-4.23-.85-5.86-1.69-.51-.26-4.23-5.09-5.36-6.11-.97-.87-3.07-.88-3.99-2.01-1.18-1.45-.64-3.84-1.43-5.56-.73-1.57-3.43-2.72-3.98-4.06s.77-3.03.11-4c-.94-1.39-4.69-.82-6.6-1.44-7.58-2.47-3.52-5.79-5.42-8.57-.61-.89-2.85-.77-3.99-2-1.34-1.44-2.3-6.69-2.56-6.94-1.92-1.8-2.33,1.35-.99,2.99-5.88,1.92-4.79-2.91-5.54-3.06-2.59-.51-6.6.5-9.44.06-.81-3.26,2.13-1.17,3.09-2.59,1.29-1.89-.75-4.8.86-5.9,9.11-2.17,17.22-7.3,26.2-9.81,11.97-3.35,20.88-5.74,32.79-9.67,18.22-6.02,39.01-7.56,57.94-9.99Z"/>
            <path class="cls-14" d="M533.69,231.77c-2.99,1.35-14.39,2.81-14.99-2,5.2.1,10.2,1.43,14.99,2Z"/>
            <path class="cls-14" d="M498.72,228.77c-4.31.15-5.63.25-9.99,0,2.62-1.69,7.4-1.67,9.99,0Z"/>
            <path class="cls-14" d="M509.71,229.77c-.09,0,.11.87-1.48.97-2.82.18-8.56,1.13-7.51-1.97,2.82-.19,6.71-.6,8.99,1Z"/>
            <path class="cls-14" d="M477.74,228.77c-4.11.54-4.12.04-6.99,0,1.69-1.41,5.48-1.85,6.99,0Z"/>
            <path class="cls-14" d="M549.67,233.76c-1.56.03-1.99.1-4,0,1.26-1.39,2.78-1.38,4,0Z"/>
            <path class="cls-14" d="M538.68,231.77c2.5.16,4.62-1.04,4,2-2.38-.35-4.63,1.22-4-2Z"/>
            <path class="cls-14" d="M486.73,228.77c-.68.03-3.52,3.1-3-1,1.08-.08,2.54-.22,3,1Z"/>
            <path class="cls-14" d="M554.67,234.76c-.28,0-3.35,3.26-3-1,1.15-.09,2.2.07,3,1Z"/>
            <path class="cls-14" d="M564.66,237.76c-.28,0-3.37,3.25-3-1,.93.27,2.18-.13,3,1Z"/>
            <path class="cls-14" d="M455.76,229.77c.3,2.36-.27,2.7-2,1,.11-.02.29-.75,2-1Z"/>
            <path class="cls-14" d="M570.65,239.76c-.23,0-2.22,3.08-2-1,.74.22,1.45.4,2,1Z"/>
            <path class="cls-14" d="M464.75,229.77c-.68,1.22-2.72,1.66-3,0,.98-.09,2.01.04,3,0Z"/>
            <path class="cls-14" d="M314.9,263.73l-4,2c.74-.27,2.11-1.33,4-2Z"/>
            <path class="cls-9" d="M553.66,275.72c-.26.27-6.38,1.23-4.98-2.48,1.5-4,6.99.46,4.98,2.48Z"/>
            <path class="cls-9" d="M569.65,250.75c.29.29.64,3.79-1.48,2.98-3.62-1.38-.26-4.72,1.48-2.98Z"/>
            <path class="cls-4" d="M409.81,357.64c-2.66,2.59-7,2.21-9.99,3-.84-2.48,6.26-4.06,8.37-3.98.78.03,1.44.99,1.62.99Z"/>
          </g>
        </g>
      </g>
    </g>
  </g>
</svg>